<svg width="777" height="87" viewBox="0 0 777 87" fill="none" xmlns="http://www.w3.org/2000/svg">
<path d="M876.496 101.741L869.762 34.6564C869.713 34.4025 869.663 34.1406 869.613 33.8788C869.429 33.9147 869.244 33.9506 869.068 33.9937C868.039 33.2617 867.01 32.5296 865.981 31.7976L864.767 31.8788C864.997 29.8058 863.658 30.127 862.441 30.257C861.79 31.6543 860.642 32.1575 859.363 32.448L859.356 32.3759C858.445 31.4936 857.313 31.153 856.126 30.948C855.96 30.9333 855.796 30.9427 855.633 30.9601C854.871 30.6286 854.12 30.1665 853.266 30.4843C853.184 29.8211 853.102 29.1579 853.02 28.4948C852.629 28.5041 852.239 28.5215 851.856 28.5301C851.27 27.8478 850.692 27.1567 850.105 26.4664C849.747 26.0189 849.375 25.5891 848.929 25.2885C848.484 24.988 847.98 24.807 847.357 24.8413C847.367 24.6297 847.377 24.4181 847.388 24.2145C847.174 24.1888 846.968 24.1703 846.763 24.1518C846.322 23.4298 845.881 22.7077 845.441 21.9857C845.694 21.6996 845.947 21.4134 846.201 21.1273C843.652 20.6385 842.381 17.1877 839.293 17.9548C837.37 17.0592 835.335 16.378 833.721 14.8908C833.505 14.8491 833.289 14.8073 833.074 14.7656C832.901 14.4521 832.721 14.1394 832.548 13.8259C832.756 13.0023 832.485 12.262 832.154 11.5364C830.599 10.8767 830.609 8.31732 828.502 8.32383C828.451 8.12688 828.391 7.92275 828.34 7.72581C827.689 7.72245 827.006 7.62546 826.618 8.37121C825.839 8.41397 825.59 7.80109 825.29 7.23401C823.159 5.43769 821.997 2.84147 820.293 0.691896C820.108 0.727787 819.922 0.739644 819.732 0.727475C819.011 0.804493 818.284 0.890351 817.668 1.15852C817.046 1.43552 816.528 1.89567 816.213 2.73892C814.371 2.96807 815.411 4.66244 814.881 5.55291L813.266 5.847C812.457 7.00207 813.292 9.07448 811.303 9.55414C810.55 9.93417 809.577 9.29329 808.687 10.3437C810.336 10.5399 812.218 10.6303 810.956 13.0482C810.793 13.0576 810.624 13.0918 810.464 13.1413C809.115 12.5001 808.63 13.7502 807.988 14.4583C807.423 15.0773 807.166 16.0277 806.112 15.9865C805.993 16.2017 805.872 16.4088 805.761 16.6232C805.933 17.0096 806.105 17.404 806.27 17.7913C805.994 18.4846 805.61 19.0276 804.769 18.9231C804.502 18.6764 804.262 18.5483 804.06 18.5698C803.835 18.5938 803.645 18.8084 803.517 19.2512C802.413 19.8792 801.24 20.4498 801.015 21.9554C800.839 23.4801 800.184 24.7564 799.175 25.8601C799.108 26.2073 799.04 26.5465 798.973 26.8937C797.94 27.6112 796.908 28.3367 795.876 29.0623C793.758 29.653 792.091 31.4665 789.754 31.4489L789.599 31.4655C788.948 31.5351 788.741 32.051 788.614 32.6557C787.608 32.9332 787.105 33.6184 787.079 34.6899C786.582 34.7348 786.077 34.7806 785.581 34.8256L785.573 34.8265C784.221 34.3961 783.989 35.2871 783.908 36.3483C785.307 37.9557 782.864 38.751 782.998 40.0887C783.011 40.2089 783.039 40.3353 783.099 40.4665C780.869 41.903 781.603 44.4477 781.008 46.4867C780.805 47.1885 781.415 48.2001 780.663 48.669C779.726 49.2468 779.431 48.0964 778.942 47.5981C778.532 47.1804 778.123 46.9326 777.681 46.9798C777.449 47.0047 777.209 47.1113 776.947 47.3173C776.542 47.1825 776.144 47.0388 775.738 46.904C775.559 46.8341 775.38 46.7643 775.2 46.6944C774.371 46.4673 773.805 45.208 772.78 45.7628C772.354 45.4197 771.921 45.0855 771.487 44.7513C771.237 44.446 770.98 44.1496 770.731 43.8524C769.622 44.1167 768.512 44.381 767.411 44.6524C765.629 45.9358 763.993 45.9568 762.848 43.8365C762.223 42.6808 761.274 42.9846 760.366 42.9196C759.774 41.9385 758.923 41.8108 757.945 42.1339L757.45 42.8184C757.277 42.8125 757.106 42.8308 756.93 42.8738C755.806 43.6173 754.36 43.8042 754.012 45.6468C753.745 47.0436 752.428 46.6419 751.411 46.3458C750.971 45.7936 750.532 45.2414 750.101 44.6884C749.931 44.6417 749.772 44.6182 749.599 44.6124C748.645 42.909 747.009 45.1078 745.959 43.9407C744.941 44.6486 743.894 45.2949 742.795 45.8251C741.697 46.3554 740.548 46.7696 739.334 47.0126L739.326 47.0135C738.731 46.5428 738.218 45.966 737.657 45.4511C737.096 44.9362 736.48 44.492 735.693 44.3008C735.13 43.8428 734.493 44.0566 733.87 44.0908C733.069 43.9902 732.267 43.8896 731.467 43.7971C731.138 43.565 730.81 43.341 730.489 43.1081C730.025 41.6113 729.128 40.4846 727.623 40.1597C726.414 39.9002 726.507 41.2181 726.056 41.8735C726.013 41.9914 725.977 42.1005 725.941 42.2176C725.742 42.3361 725.542 42.4546 725.336 42.5819C723.951 43.2318 723.015 44.5948 721.53 45.1016C721.384 45.2872 721.254 45.4711 721.123 45.647C721.061 45.6537 720.998 45.6523 720.936 45.659C719.889 45.7708 718.943 46.2524 718.043 46.9639L717.961 47.013C716.298 47.1422 715.558 48.3627 715.112 49.7706C714.804 50.7588 714.595 51.6474 713.319 51.4194C712.343 50.6736 711.652 51.2008 711.016 51.9651C711.079 52.1283 711.049 52.2935 710.962 52.4404C710.715 52.7906 710.476 53.148 710.297 53.5477C710.226 53.7819 710.18 54.0217 710.148 54.2518C709.895 54.3841 709.637 54.4603 709.381 54.4876C708.055 54.6292 706.718 53.5657 705.386 53.5623C705.123 53.048 704.852 52.5345 704.582 52.029C702.717 52.1797 700.852 52.3304 698.986 52.4811C698.124 51.4561 697.435 50.1371 696.359 49.483C694.656 48.4424 694.548 46.9724 694.583 45.3008C693.713 44.8999 692.682 44.7753 692.174 43.7771C691.455 43.4815 690.718 43.2364 690.074 42.8356C689.431 42.4428 688.884 41.9102 688.578 41.0443C687.922 40.7581 687.258 40.4647 686.594 40.1714C686.159 39.7322 685.768 39.9034 685.467 40.3323C685.18 40.7516 685.42 41.2684 685.34 41.7222C685.058 43.2096 684.504 44.1674 682.956 42.8675C682.729 42.7136 682.502 42.5678 682.268 42.4147C681.818 41.6855 681.679 40.9232 682.02 40.1015C681.852 40.0708 681.685 40.0482 681.52 40.0415C680.526 38.1723 679.49 37.9996 678.518 40.0303C677.981 41.1563 676.991 41.7479 676.117 42.489C676.102 42.6525 676.08 42.8168 676.049 42.982C676.233 43.1729 676.303 43.4082 676.336 43.6557C676.131 44.1067 675.943 44.5801 675.774 45.0759C675.204 46.1164 674.498 47.1229 674.974 48.4321C675.065 48.8677 675.148 49.3041 675.201 49.7518C675.244 49.9496 675.264 50.1499 675.277 50.351C675.265 50.6194 675.251 50.8719 675.046 50.9423C674.131 51.4207 673.223 51.8982 672.307 52.3765C671.151 51.7067 670.365 52.5435 669.503 53.089C669.173 52.4523 668.807 52.2404 668.419 52.2819C668.032 52.3233 667.608 52.6276 667.189 52.98C667.02 53.1681 666.867 53.3626 666.724 53.5722C666.71 53.5899 666.697 53.6155 666.691 53.6404C664.316 53.9427 662.013 54.6422 659.616 54.8012C659.141 54.8357 658.78 55.2223 658.758 55.7753C658.713 55.7963 658.668 55.8173 658.631 55.8375C657.438 55.1148 656.002 55.8754 654.79 55.2762C654.386 55.1494 653.985 54.9818 653.586 54.8301C651.335 55.2001 651.045 55.6683 652.238 57.5568C652.238 57.5568 652.217 57.5833 652.211 57.6001C650.809 56.827 649.168 57.0995 647.712 56.5669C647.154 56.3917 646.619 56.1411 646.016 56.2217C645.268 56.496 644.463 56.6711 643.885 57.2348L643.87 57.2364C643.625 57.1411 643.377 57.0867 643.117 57.0739C640.621 57.1868 638.042 57.7943 635.903 55.764C635.718 55.5571 635.52 55.3839 635.292 55.222C635.085 55.1066 634.864 55.0168 634.638 54.9439C634.529 54.5668 634.141 54.2925 633.793 54.103C632.732 53.5202 632.285 52.4993 631.726 51.5389C630.778 50.6848 629.639 50.5717 628.459 50.6006C628.395 50.6642 628.32 50.7045 628.248 50.7608C628.056 49.8664 627.479 49.7338 626.687 50.0451C626.674 48.2005 625.275 47.2975 624.191 46.1747C623.536 45.7346 622.771 45.2901 622.043 45.6108C618.611 47.0946 615.098 46.1261 611.626 46.0355C610.055 45.9929 608.913 46.3174 608.86 48.1365C608.828 49.4515 607.933 49.28 607.142 49.5992C605.426 50.2927 603.206 49.8821 602.011 51.7909C599.579 50.3506 597.854 50.4944 596.316 52.2618C595.916 53.3569 595.685 54.4908 595.504 55.6437C595.341 58.2356 594.269 59.8964 591.506 59.8435C586.47 58.7624 582.104 61.0099 577.665 62.8282C577.221 63.0133 577.006 63.5221 576.825 63.9866C576.814 64.0363 576.811 64.0852 576.801 64.1349C576.544 64.2352 576.308 64.3738 576.09 64.5509C576.019 64.6232 575.957 64.7028 575.894 64.7823C573.45 63.8453 571.294 64.4561 569.77 66.5215C569.538 64.6761 568.292 64.5258 566.697 64.9472C565.718 65.57 564.534 63.381 563.603 64.5653C563.389 64.6125 563.185 64.691 562.993 64.8006C562.519 65.1588 562.121 65.6386 561.517 65.7921C561.389 64.9071 561.333 63.804 560.159 65.9211C559.96 66.2743 559.609 66.5303 559.225 66.2961C557.863 65.4458 556.781 66.0634 555.697 66.6569C555.364 66.6196 555.027 66.6151 554.686 66.6596C554.438 66.6052 554.185 66.5836 553.927 66.5869C552.8 66.9097 551.593 66.4395 550.451 66.6102C549.779 66.5524 549.125 66.4361 548.506 66.1217C548.549 66.0037 548.592 65.8858 548.595 65.764C548.597 65.4723 548.54 65.2113 548.405 64.9585C548.241 64.7331 548.028 64.5616 547.788 64.4334C547.764 64.4279 547.741 64.4304 547.71 64.4337C547.566 62.846 546.436 62.983 545.111 63.4403C544.386 63.8659 543.675 64.3548 542.784 63.8346C540.646 62.5896 538.599 63.6664 536.514 64.0431C536.429 63.8174 536.271 63.6481 536.041 63.5431C534.708 63.5317 533.54 63.8426 532.893 65.199C532.664 65.5716 532.555 65.9719 532.654 66.4066C532.663 66.4218 532.672 66.429 532.688 66.4353C532.325 66.798 532.159 67.2529 532.132 67.7658C532.118 68.6417 532.22 69.4971 532.467 70.3208C532.284 71.15 531.618 71.3101 530.121 70.9115C528.053 70.3713 525.53 69.4346 524.058 72.3283C524.059 72.3364 524.074 72.3347 524.084 72.3499C521.248 74.3045 521.142 70.9073 519.773 69.993C519.65 69.8604 519.544 69.8151 519.437 69.8427C519.434 69.8107 519.415 69.7803 519.404 69.7491C518.501 68.2426 517.334 67.0799 515.837 66.1308C513.51 64.6469 511.4 64.8561 509.246 66.3492C508.88 66.6069 508.463 66.7485 508.048 66.9062C507.639 66.3427 507.309 65.6251 506.555 65.7623C506.505 65.7353 506.471 65.7065 506.413 65.6803C505.526 65.6617 505.041 66.0616 505.017 66.9143C504.027 66.1861 502.7 66.9352 501.688 66.2985C499.893 65.8183 497.931 65.9389 496.396 64.5404C496.052 64.2371 495.532 64.2845 495.127 64.6193C495.447 63.4355 495.123 62.5471 494.032 61.9836C493.507 61.9101 492.989 61.9007 492.507 62.0089C491.87 61.7531 491.315 61.3752 491.094 60.5002C490.399 59.7406 489.767 58.9094 489.003 58.2462C488.343 57.6852 487.506 56.7545 486.871 58.3121C485.871 57.9573 485.332 58.9865 484.614 59.4762C483.591 59.9012 482.555 59.8823 481.574 59.3962C478.622 57.9304 476.074 58.7774 473.705 60.7792C472.532 61.8843 470.527 61.5803 469.596 63.0803C469.793 61.6101 468.358 61.4396 467.656 60.6888C467.422 60.5438 467.162 60.4501 466.884 60.415C466.418 60.4567 465.971 60.4478 465.536 60.4053C465.419 60.3367 465.303 60.2683 465.186 60.1997C465.203 60.0603 465.212 59.9136 465.222 59.775C464.568 56.6225 462.887 57.9761 461.357 58.6577C461.405 58.5959 461.456 58.55 461.497 58.489C461.689 58.0636 461.684 57.6269 461.639 57.1783C461.609 56.8739 461.51 56.5931 461.366 56.3331C460.327 54.412 459.024 52.9806 456.615 53.489C455.518 53.7196 454.69 52.7312 453.675 52.532C453.667 52.4519 453.637 52.3903 453.622 52.319C453.513 52.0069 453.353 51.7407 453.133 51.5051C451.413 50.4421 449.66 49.6092 447.541 49.8841C445.035 50.2085 444.178 51.2637 444.672 53.7692C444.575 53.9739 444.487 54.1937 444.408 54.4207C444.402 54.4376 444.396 54.4544 444.398 54.4704C443.729 54.5256 443.017 54.6828 442.742 53.6677C441.264 52.4412 439.818 51.1465 437.725 51.4511C437.673 51.4 437.621 51.3489 437.575 51.2809C437.54 51.2522 437.505 51.2155 437.471 51.1867C437.508 50.9318 437.474 50.6683 437.377 50.4034C436.846 49.5615 436.154 48.9877 435.122 49.017C433.91 49.8185 432.273 50.131 431.646 51.6148L431.623 51.6173C431.179 51.6405 430.746 51.7028 430.322 51.8453L429.949 52.3467C428.965 51.8284 428.045 52.4206 427.749 53.2213C427.212 54.6631 426.134 55.005 425.044 55.4615C425.231 54.9071 425.073 54.4301 424.641 54.0229C424.548 53.96 424.449 53.9058 424.349 53.8517C424.353 53.6489 424.255 53.457 424.049 53.2766C422.635 53.3223 421.204 53.6614 420.271 52.1663C420.216 51.9293 420.095 51.7398 419.937 51.5704C419.781 51.3442 419.577 51.1879 419.325 51.0934C418.947 50.8423 418.547 50.6017 418.324 50.2531C418.166 50.0109 417.989 49.8031 417.796 49.5971C415.304 48.3413 414.072 45.8254 412.421 43.743C412.008 43.2123 411.726 42.5948 411.078 42.2997C410.804 42.2318 410.529 42.2207 410.252 42.2665C410.115 42.3135 409.981 42.3845 409.864 42.4618C410.25 41.3114 409.654 40.7598 408.463 40.6037C406.947 40.4094 405.445 40.4322 404.016 41.103C403.959 41.3196 403.908 41.5113 403.872 41.7013C403.854 41.679 403.844 41.6557 403.834 41.6325C401.989 40.34 399.76 39.7604 398.153 37.9567C397.218 36.915 396.079 36.7291 394.518 37.9565C393.255 38.9577 391.141 38.8111 389.344 39.1002C388.824 38.2086 388.148 38.1027 387.328 38.6761L387.324 38.636C386.785 38.1835 386.267 38.2551 385.777 38.6799C385.777 38.6799 385.752 38.6663 385.743 38.6592C385.756 38.6335 385.777 38.607 385.79 38.5813C385.574 36.9691 384.832 36.603 383.469 37.4611C382.99 37.7632 382.569 38.0996 382.21 38.5023C381.859 38.054 381.503 37.6225 380.867 37.6175C379.069 38.0444 378.53 39.3813 378.369 40.9853C377.854 41.0808 377.445 41.3755 377.056 41.7166C376.766 41.869 376.473 41.9974 376.163 42.1115C375.116 42.9116 373.007 42.7482 373.624 45.0706C373.768 45.2496 373.945 45.3765 374.134 45.4696C372.727 46.1219 371.662 46.9805 372.05 48.6635C371.18 47.9549 370.433 48.3181 369.643 49.4307C368.552 50.9641 367.609 52.6598 365.939 53.656C365.115 53.9625 364.548 53.4564 363.967 52.976C363.747 52.8133 363.501 52.71 363.244 52.6484C361.152 52.7182 359.968 54.5044 358.627 55.6677C357.199 56.897 356.157 57.4375 354.419 56.6679C353.598 56.3021 352.61 55.9786 351.705 56.5611C352.216 55.0169 350.756 54.7599 350.033 54.0276C349.82 53.937 349.602 53.8712 349.386 53.8295C349.438 52.9415 348.662 52.4738 347.841 52.1001C346.749 51.6014 345.606 51.2136 344.644 50.4501C344.371 50.3092 344.09 50.2421 343.791 50.2335C341.477 50.5941 339.64 49.1469 337.616 48.4239C336.032 47.8565 334.678 47.8716 333.41 49.0595C333.29 49.1857 333.203 49.3407 333.14 49.4931C331.063 48.0716 328.839 47.8558 326.91 48.8472C326.89 48.8089 326.872 48.7785 326.844 48.7409C326.638 48.4067 326.361 48.1448 326.036 47.9448C326.134 47.5214 326.081 47.0656 326.011 46.6035C324.794 41.2767 320.783 39.398 316.255 38.1573C315.814 38.2125 315.411 38.1826 315.034 38.0934C314.195 37.5354 313.377 36.886 312.442 36.6216C311.985 36.2818 311.521 35.9509 311.018 35.7051C310.553 35.52 310.079 35.3277 309.613 35.1266C308.666 34.9848 308.075 34.1656 307.252 33.7758C307.108 33.7426 306.966 33.7335 306.825 33.7404C307.028 33.0226 306.879 32.3989 305.998 32.2905C305.038 32.1664 305.004 33.0039 305.128 33.695C305.345 34.9106 304.675 35.735 304.056 36.5945C303.828 37.5986 303.352 38.6291 304.071 39.5481C303.215 39.8419 302.741 40.6617 302.057 41.1881C301.904 41.3016 301.768 41.4295 301.632 41.5574C301.054 41.9673 300.676 42.4854 300.454 43.092C300.209 43.5311 299.997 43.999 299.802 44.4732C299.703 44.7428 299.668 45.0138 299.664 45.2894C299.544 45.3427 299.433 45.4032 299.312 45.4485C299.058 45.5728 298.839 45.7338 298.648 45.9324C298.558 46.0553 298.485 46.1845 298.413 46.3218C296.35 46.2264 294.936 47.1224 294.513 49.6207C294.313 50.8241 293.579 51.4773 292.335 51.4889C289.214 51.539 286.093 51.597 283.271 49.8583C283.11 49.665 282.941 49.4645 282.773 49.272C282.835 47.6219 281.342 47.498 280.442 47.1245C279.748 46.8425 279.42 48.0192 279.148 48.7445C279.019 49.0983 278.647 49.6885 278.631 49.6902C276.378 48.4656 273.94 50.4828 271.71 49.2638C271.504 49.0834 271.305 48.8943 271.106 48.7131C270.827 47.4881 269.421 46.8286 269.537 45.4075C268.976 45.2084 268.408 45.018 267.849 44.8268C267.312 44.5522 266.934 44.455 266.67 44.4832C265.725 44.5842 266.15 46.247 265.665 46.8817C264.348 47.0225 263.032 47.1873 261.716 47.3441L261.715 47.3281C261.669 46.7177 261.623 46.1072 261.578 45.4968C261.311 44.9504 261.053 44.4032 260.794 43.856C259.355 42.5525 257.811 42.6284 256.324 43.6536C255.722 44.058 255.144 44.3869 254.474 44.5071C254.473 44.499 254.472 44.483 254.456 44.4766C254.25 44.3043 254.033 44.1736 253.795 44.0615C253.637 44.046 253.471 44.0393 253.308 44.0487C253.079 43.3283 252.691 42.7384 252.056 42.3447C251.774 41.8 251.499 41.2465 251.217 40.7018C249.346 37.2018 247.641 36.9953 245.228 39.8844C244.507 40.7466 243.573 41.4294 242.733 42.1911L242.725 42.192C242.411 41.2459 242.097 40.3079 241.775 39.3627C241.585 39.1887 241.395 39.0066 241.204 38.8246C240.017 38.9433 239.782 40.1099 239.124 40.8117C237.609 41.3298 235.981 41.5038 234.58 42.3741C231.796 41.0279 231.405 43.2152 230.875 45.1987C227.725 43.1631 225.518 45.2124 223.386 47.1565C222.245 48.1933 221.21 49.0487 219.627 48.2625C218.777 49.2438 217.884 49.7846 216.946 49.8848C216.008 49.985 214.993 49.632 213.949 48.8287L213.97 48.8022C213.574 48.0591 212.937 47.8034 212.162 47.8133C210.818 47.374 209.469 46.9676 208.142 46.4778C207.345 46.1825 206.801 46.4592 206.553 47.1901C205.695 49.7267 204.334 49.7426 202.839 49.1412C202.474 48.9373 202.124 48.6509 201.786 48.2498C201.559 47.9341 201.36 47.5911 201.162 47.256C200.896 46.8715 200.639 46.4942 200.381 46.1089C198.64 45.2343 197.065 44.1476 195.786 42.6408C195.756 42.5712 195.725 42.5015 195.702 42.4231C195.66 42.3222 195.612 42.2303 195.563 42.1383C195.568 42.0325 195.542 41.9221 195.452 41.8102C195.358 41.6503 195.279 41.4887 195.214 41.3174C195.006 41.1939 194.806 41.0776 194.598 40.9541C194.358 40.745 194.103 40.5456 193.841 40.355C193.713 40.3282 193.578 40.3103 193.45 40.2835C192.431 40.7485 191.441 40.7977 190.532 40.0123C190.297 39.4707 190.077 39.2351 189.891 39.2549C189.682 39.2773 189.502 39.588 189.343 40.115C188.333 40.1177 188.153 39.0278 187.468 38.6071C186.076 37.93 185.441 38.5483 185.286 39.9735C181.974 40.9266 178.752 40.5908 175.589 39.3662C175.585 39.3262 175.612 39.2828 175.615 39.2339C175.36 39.0425 175.098 38.8439 174.843 38.6525C174.596 38.2983 174.349 37.9442 174.103 37.5981C172.838 35.685 171.439 36.7411 170.057 37.407C170.069 37.5271 170.081 37.6472 170.093 37.7674C170.077 37.761 170.069 37.7619 170.06 37.7547C165.938 36.8835 161.809 36.1022 157.568 36.7011C156.518 36.8537 155.798 37.3274 155.515 38.4101C154.272 40.0811 152.995 41.7154 150.748 41.9635C150.588 41.932 150.436 41.9078 150.277 41.8843C150.143 41.0891 149.581 40.6471 148.998 40.2236C148.953 39.8479 148.906 39.4643 148.861 39.0887C146.035 36.9294 142.92 37.8937 139.858 38.1399C138.777 38.223 138.667 39.3115 137.993 39.7802C138.199 40.1144 138.413 40.4479 138.626 40.7813C138.68 41.6256 138.542 42.3609 137.641 42.6757C137.272 42.5127 136.901 42.3257 136.544 42.3638C136.312 42.3886 136.081 42.5105 135.868 42.8085C135.542 44.9403 132.747 46.3642 134.203 49.0098C134.028 49.2148 133.861 49.4268 133.694 49.639C132.729 49.9364 132.162 50.5313 132.218 51.6345C131.907 52.364 131.389 52.8241 130.611 52.9558C129.298 50.724 127.73 50.2438 125.796 52.1993C123.778 53.4835 121.965 51.969 120.057 51.7761C119.516 51.923 118.975 52.0779 118.426 52.2256C117.335 51.5002 116.229 50.7925 115.143 50.0423C114.193 49.3909 113.28 49.197 112.387 50.1344C112.184 50.1399 111.989 50.1525 111.787 50.1661L111.833 50.2341C109.633 49.4653 107.637 48.7879 106.456 52.0068C105.988 53.2712 104.044 52.6449 102.808 53.0522C100.813 52.14 101.235 54.629 100.18 55.0493C99.54 55.6926 98.9866 56.6585 98.1904 56.6869C98.1395 56.3361 98.0731 55.987 98.0292 55.6274C97.6762 54.2968 96.819 53.3279 95.8311 52.4619C95.337 51.9884 94.6361 51.7962 94.2176 51.2175C94.0267 50.9545 93.8275 50.7652 93.6323 50.6161C92.8972 49.5369 91.8214 49.668 90.761 50.6557C89.9163 51.4503 89.0616 51.833 88.1258 51.8763C87.7772 51.7598 87.4275 51.5542 87.0633 51.2045C86.8233 51.0764 86.5648 50.9987 86.2948 50.9628C86.2026 50.9807 86.1267 51.0051 86.0508 51.0294C85.542 50.5656 84.9362 50.3064 84.4621 50.6567C82.5302 52.0937 81.0387 51.3625 79.5598 50.4437C79.4225 50.0131 79.3094 49.588 79.3651 49.1287C78.7133 47.7086 78.1387 46.1994 76.3165 45.9974C76.4549 45.6587 76.3872 45.3745 76.0196 45.1466L76.0404 45.1201C75.805 44.5704 75.4916 44.1019 74.9155 43.9044C74.7965 42.7189 73.7943 42.1783 72.8361 41.6087C72.1187 41.5639 71.4247 41.3628 70.7209 41.2194C70.739 41.0879 70.6641 40.9664 70.4808 40.8564C70.4484 40.6899 70.409 40.5322 70.3697 40.3745C70.0107 40.3885 69.6587 40.3938 69.2997 40.4078C67.8194 39.554 67.3049 40.7505 66.6407 41.7039C65.2043 43.7843 64.1868 46.3703 61.2258 46.6867C61.0528 46.6809 60.8729 46.684 60.7008 46.6862C60.508 46.561 60.3351 46.5551 60.1828 46.6767C60.0536 46.5609 59.9221 46.4212 59.8036 46.2557C58.3619 45.7864 56.834 47.6578 55.4364 46.0665C55.3653 45.9041 55.3011 45.7329 55.2446 45.5608C55.0372 45.4454 54.8305 45.3378 54.6239 45.2304C53.4504 44.0766 52.2908 42.9051 50.9097 42.0245C50.2064 41.8082 49.4585 41.9285 49.1093 42.5083C47.549 45.0714 44.7098 46.5244 43.6225 49.5066C42.8468 51.6135 41.4764 49.825 40.3746 49.8536C40.3674 49.7815 40.3377 49.7199 40.3227 49.6487C39.1445 48.0582 37.5692 47.506 35.6606 47.2241C32.9963 46.8287 30.4385 45.8551 27.7248 45.5136C26.0352 45.3055 25.6445 42.7403 23.7976 42.3709C23.0563 41.9319 22.4322 41.3347 21.7959 40.7712C19.8122 40.2869 19.4537 42.1792 18.7448 43.2346C18.1787 44.0723 17.6252 44.5687 16.9549 44.6808C16.4528 44.5968 15.9583 44.431 15.445 44.2349C15.3723 43.1982 14.8026 42.83 13.8469 43.3774C13.1272 43.7781 12.4766 44.0095 11.7008 43.6957C11.5179 43.5129 11.342 43.3211 11.1669 43.1375C9.8534 44.2574 9.33865 46.466 7.21951 46.5062C7.2179 46.4902 7.2171 46.4821 7.21549 46.4661C6.38966 44.9513 5.4205 45.2087 4.57321 46.3679C3.86246 47.3263 3.83338 48.5196 3.68722 49.7172C3.43412 51.8006 3.13802 54.002 0.678815 54.791L7.07525 118.512L7.27466 118.547L8.0861 114.299L10.043 115.296L12.6192 113.175L12.8894 115.867L15.8555 117.63L17.0253 113.83L19.5463 114.281C19.5463 114.281 21.4305 114.476 22.1064 115.044C22.7823 115.611 25.2792 118.866 25.2995 117.585C25.3274 116.303 25.7451 112.736 25.7451 112.736L28.4983 113.94L30.2335 117.333L32.0252 113.563L34.1724 113.334L36.5128 115.108C36.5128 115.108 39.6619 112.529 39.6145 112.056C39.5671 111.583 41.9048 113.252 41.9048 113.252L43.1889 115.196L45.5028 116.705L47.6618 115.034L50.1071 116.214L54.2667 117.534L56.0039 114.782L55.7659 112.411C55.7659 112.411 59.8492 114.533 60.3065 114.484C60.7639 114.435 61.7617 113.527 61.7617 113.527L65.6231 113.439L67.5992 116.11L70.025 112.491L72.8081 115.553L72.4262 111.748L73.85 110.479L75.9251 112.654L78.3593 112.24L81.0867 114.669C81.0867 114.669 82.0047 116.165 82.236 115.347C82.4664 114.521 83.099 113.174 83.0194 112.381L82.7838 110.034L86.3117 111.228L86.4548 112.654L87.6217 114.991L88.6181 112.585L90.2262 114.712L92.2183 114.499L92.9759 112.759L94.4946 112.435L96.97 113.992L99.7111 115.075L101.644 115.832L103.695 114.649L104.809 113.413L106.562 113.866L108.531 116.537L112.093 118.076L115.008 117.764L117.19 119.45L119.823 117.889L121 117.286L121.942 118.942L123.863 121.141L130.149 120.47L131.704 122.061L133.083 121.913L133.724 120.566L136.61 121.536L142.122 123.992L143.848 122.69L147.387 120.871L150.448 120.544L151.12 119.508L153.133 121.058L156.532 122.452L160.206 122.059L161.255 123.226L164.162 122.916L166.842 124.872L169.088 127.191L168.644 122.761L170.31 122.421L172.584 123.457L176.727 124.618L178.436 126.192L180.493 123.576L183.268 123.441L185.212 122.748L188.298 122.58C188.298 122.58 189.71 122.753 189.949 122.088C190.194 121.414 191.03 120.531 191.03 120.531L193.034 121.912L193.145 123.025L195.443 124.375L196.454 122.032L197.332 120.012L198.855 121.29L199.782 122.794L201.117 123.769L203.109 123.556L202.998 122.45L205.256 123.326L206.171 123.229L206.935 121.552L207.909 120.485L210.355 121.664L212.236 120.346L213.837 122.41L216.14 122.164L215.806 118.839L218.057 119.724L218.968 121.068L220.064 122.708L220.689 121.2L222.212 122.478L222.101 121.373L223.767 121.033L225.508 122.928L226.733 122.797L226.479 120.266L229.035 122.551L230.51 123.357L230.208 120.345L231.715 121.463L233.146 120.347L234.164 121.201L235.409 122.833L239.246 122.423L239.97 120.419L240.769 120.657L243.894 120.963L244.706 119.759L245.68 118.692L247.06 121.588L248.435 119.838L249.509 121.327L251.044 121.163L252.658 118.748L253.593 117.207L253.72 118.472L255.859 118.244L256.793 116.703L258.36 116.859L260.841 116.91L261.831 116.003L263.223 114.413L264.858 113.761L266.043 113.156L267.804 113.77L268.87 115.097L271.307 116.27L272.794 115.633L272.874 116.426L274.182 118.691L277.1 119.974L277.979 121.005L279.514 120.841L279.466 120.361L282.429 120.53L283.749 118.308L285.498 117.158L287.025 120.039L288.095 119.925L287.952 118.499L288.656 117.784L289.972 117.004L290.93 118.82L291.136 120.879L292.707 119.586L294.393 117.81L295.121 117.409L295.216 118.362L297.443 118.926L297.57 120.191L300.027 119.929L301.665 120.871L303.94 121.907L304.704 120.231L304.544 118.645L306.008 120.893L306.278 123.584L308.477 122.386L309.669 124.979L309.749 125.772L311.002 124.359L310.938 123.726L312.946 123.673L314.095 124.344L315.237 121.826L314.998 119.447L315.749 119.204L317.07 120.027L318.684 120.656L320.676 120.443L320.803 121.709L322.843 121.968L323.452 120.308L324.958 121.427L326.055 123.066L325.865 121.168L327.654 120.499L328.943 121.001L331.857 120.689L331.36 123.463L332.048 122.588L333.352 123.25L334.342 125.387L335.941 122.812L335.686 120.28L336.466 118.756L337.595 117.672L338.569 119.649L339.937 120.943L342.052 120.402L341.877 118.655L340.919 116.839L342.645 118.573L344.128 119.54L344.955 118.489L346.713 117.499L347.731 118.354L347.588 116.928L349.027 115.811L351.85 116.149L353.811 115.624L354.801 114.716L356.638 114.52L358.801 114.451L361.118 114.357L362.109 113.458L363.099 112.551L364.638 113.981L365.341 113.266L367.974 114.75L368.292 117.914L369.37 114.763L371.147 115.528L372.841 113.906L373.111 116.598L375.067 117.514L377.032 118.583L378.742 117.121L379.505 115.437L381.112 116.067L381.907 114.703L382.559 111.913L382.75 113.811L386.412 114.861L386.158 112.33L387.458 111.389L388.726 113.172L390.559 111.374L392.114 112.972L392.352 115.343L394.627 113.343L396.038 113.508L397.521 111.269C397.521 111.269 399.176 112.38 399.1 113.181C399.032 113.99 399.45 116.512 399.45 116.512L401.184 112.319L400.142 111.151L402.087 110.466L401.943 109.04L403.55 109.67L404.989 111.597L406.687 111.577L408.962 112.613C408.962 112.613 409.792 113.164 410.046 112.651C410.309 112.146 410.731 110.182 410.731 110.182L412.115 111.637L414.25 112.85L415.737 112.205L415.896 113.791L417.276 113.644L418.234 112.424L419.673 111.307L421.614 109.019L421.821 111.078L423.36 112.516L424.998 116.503L427.002 114.847L428.604 113.875L428.365 111.496L431.097 112.483L432.163 110.774L431.781 106.969L433.662 108.695L434.851 106.641L436.167 105.861L435.801 102.217L437.154 103.359C437.154 103.359 437.877 104.399 438.271 103.718C438.672 103.035 438.907 100.767 438.907 100.767L438.7 98.7089L440.804 99.6014L441.523 99.0468L442.574 97.1778L441.551 94.7206L443.687 95.9335L445.289 98.0049L447.015 96.7032L448.642 95.8899L450.24 96.3587L451.118 94.338L452.451 93.718L451.926 88.4954L455.54 88.9837L456.622 90.552L459.206 91.5551L460.602 91.5679C460.602 91.5679 462.177 91.8774 462.61 91.5153C463.035 91.146 463.767 89.149 463.767 89.149L464.021 91.6803L466.55 92.2116L466.376 90.4733L468.069 91.8874L469.465 91.9002L470.945 91.2644L471.521 89.276L473.12 89.7528L473.374 92.2841L474.909 92.1201L476.603 90.498C476.603 90.498 476.197 89.5779 476.476 89.2324C476.746 88.8797 478.595 87.2411 478.595 87.2411L478.523 86.5281L481.223 87.1221L482.738 88.4014L485.04 88.1554L486.686 89.0968L489.056 91.0862L490.773 92.8215L492.842 91.8071L493.049 93.8657L494.945 95.7438L496.313 93.9946L497.704 92.4048L498.42 90.2476L499.681 92.0318L501.363 91.8521L504.965 90.6657L506.285 91.488L507.053 91.406L508.313 93.1902L510.691 92.1346L511.697 94.4317L514.838 94.8976L516.218 94.7501L517.192 93.6826L517.999 90.8761L519.371 93.7736L520.282 95.1175L521.51 96.5811L521.685 98.3274L523.013 99.1489L524.314 98.2085L525.852 99.6391L527.494 102.184L530.095 100.311L529.92 98.5648L531.041 94.2837L531.503 98.8815L532.882 98.7341L534.405 100.012L535.566 102.285L537.494 101.439L538.66 102.278L540.222 100.824L541.526 101.486L541.701 103.232L544.767 104.508L545.956 105.498L547.256 104.558L547.336 105.351L549.534 104.152L550.93 107.209L553.447 109.183L554.06 109.118L554.652 107.289L553.53 105.328L555.483 107.84L557.189 107.82L558.366 107.216L560.465 106.506L560 109.6L560.958 111.417L562.485 111.253L563.332 111.964L568.696 111.391L569.884 112.382L572.024 112.153L571.738 109.309L572.791 112.071L573.75 113.896L574.974 113.765L575.472 110.991L576.509 113.601L577.674 114.432L577.388 111.58L579.237 112.985L580.588 114.12L581.511 114.022L581.225 111.17L582.986 114.827L585.058 115.408L585.968 113.707L587.118 114.386L588.1 113.318L588.999 113.068L590.422 114.835L591.976 116.425L593.221 115.013L594.883 116.115L594.963 116.908L596.8 116.711L598.434 119.103L599.555 117.858L600.545 116.951L602.08 116.787L601.953 115.521L604.808 113.136L605.015 115.194L606.753 112.45L607.782 111.854L608.116 115.187L609.142 116.194L610.017 115.623L611.178 114.86L613.639 116.192L615.135 115.716L614.614 114.274L613.635 111.553L616.829 117.138C616.829 117.138 618.097 115.877 618.049 115.405L617.842 113.346L619.039 114.497L620.658 116.729L621.986 114.506L623.875 116.385L625.019 118.497L625.691 117.47L627.325 116.81L627.66 120.142L628.582 120.044L630.717 121.257L630.638 120.464L633.147 119.232L634.522 117.482L634.714 119.389L636.47 121.435L637.457 118.934L638.335 119.957C638.335 119.957 639.457 121.918 639.842 121.075C640.221 120.241 641.711 118.155 641.711 118.155L642.96 118.184L643.97 119.039L644.05 119.832C644.05 119.832 644.476 120.952 644.915 120.719C645.354 120.486 647.087 119.184 647.087 119.184L648.376 119.686L648.614 122.065L649.477 122.928L650.701 122.797L652.495 123.731L654.002 124.849L654.177 126.587L657.859 126.194L658.869 127.049L659.958 125.492L660.101 126.918C660.101 126.918 660.841 128.118 661.608 128.036L663.903 127.791C663.903 127.791 666.228 130.902 665.847 130.149C665.458 129.389 664.444 123.895 664.444 123.895L665.778 121.729L666.969 119.78L666.61 125.421L666.817 127.479L668.539 124.575L669.339 124.813L671.223 125.09L672.337 123.854L672.051 121.002L674.217 122.527L675.804 124.438L676.444 123.091L676.317 121.825L678.281 122.895C678.281 122.895 678.83 122.196 678.905 121.387C678.981 120.577 679.45 119.086 679.45 119.086C679.45 119.086 681.446 120.476 681.661 119.489L681.868 118.512L684.866 120.588L687.625 120.293L690.735 120.447L693.176 120.024L694.699 121.302L697.117 120.72C697.117 120.72 696.556 122.861 697.323 122.779C698.091 122.697 700.596 119.871 700.596 119.871L701.459 117.698L701.269 115.8L703.074 118.327L704.298 118.196L707.511 119.294C707.511 119.294 708.405 117.433 708.342 116.801L707.961 113.004L710.581 115.922L711.809 117.394L713.455 115.291L716.167 114.524L718.39 113.485L719.631 110.47L719.456 108.732L720.995 110.17L721.758 108.486L724.486 107.87L725.428 106.49L726.824 106.503L727.031 108.562L729.253 107.523L728.693 109.663L729.587 110.847L731.058 110.05L732.259 112.804L732.975 110.647L732.801 108.909L734.307 110.027L736.454 109.798L737.21 108.114L738.995 105.842L738.821 104.104L740.53 102.634L740.865 105.967L745.067 106.157L744.861 104.099L747.525 105.895L749.143 105.082L751.195 103.9L753.063 104.016L754.55 103.379L755.771 101.646L757.529 100.664L758.487 99.4367L758.344 98.0108L759.768 99.7856L761.657 101.664L762.782 102.022L763.509 101.62L764.809 100.68L766.658 102.085L767.573 101.988L768.746 99.7817L770.238 100.748L771.16 100.649L771.971 99.4372L772.603 98.0904L774.575 99.1589L775.8 99.028C775.8 99.028 777.855 99.448 777.637 98.8318C777.418 98.2155 776.583 96.0621 776.583 96.0621L778.683 98.4042L780.77 99.1366L780.627 97.7108L783.029 96.9765L784.743 97.1172C784.743 97.1172 785.872 99.0773 785.963 98.4199C786.054 97.7705 786.607 95.6307 786.607 95.6307L788.126 98.3507L790.576 98.089L790.369 96.0304L792.353 98.8625L792.163 96.964L793.809 97.9055C793.809 97.9055 795.311 97.4211 795.419 96.9319C795.519 96.4436 796.282 94.759 796.282 94.759L798.386 95.6596L798.21 93.9134L801.475 94.0423L803.098 91.6344L802.843 89.0952L804.386 92.1364L803.84 94.4292L806.131 92.5894L805.893 90.2104L807.793 93.6911L809.3 94.8093L811.288 92.9938L813.376 93.7342L813.519 95.16L815.933 92.9834L817.865 93.7323L819.428 92.2861L820.422 92.9814L823.257 91.877L822.434 94.5233L824.322 93.2043L825.722 94.8196L829.142 91.8879L830.478 92.8704L832.832 94.6996L834.836 93.0444L836.61 92.2153L838.574 93.2847L840.661 87.7749L839.953 93.1372L841.217 93.318L842.208 92.4107L842.526 95.5827L844.482 93.4549L844.626 94.8807L847.063 96.0613L848.2 94.9765L849.051 94.2459L850.53 96.6463L851.906 94.8963C851.906 94.8963 854.085 94.9873 854.192 94.4982C854.291 94.0018 854.745 92.3584 854.745 92.3584L856.161 97.1701L857.349 98.1603L859.521 98.2522L862.872 96.1291L865.306 95.7073L867.139 96.9525L868.634 99.513L870.654 98.0181L873.135 98.0767L874.03 99.2604L875.851 101.948L876.496 101.741Z" fill="#121212"/>
</svg>
