<svg width="746" height="72" viewBox="0 0 746 72" fill="none" xmlns="http://www.w3.org/2000/svg">
<path d="M-128.483 102.56L-123.351 35.3238C-123.308 35.0688 -123.264 34.8058 -123.221 34.5427C-123.035 34.5739 -122.85 34.6052 -122.673 34.6438C-121.662 33.8858 -120.65 33.1279 -119.639 32.37L-118.423 32.4203C-118.703 30.3538 -117.357 30.6409 -116.137 30.74C-115.453 32.1204 -114.293 32.5943 -113.008 32.8522L-113.002 32.78C-112.112 31.8749 -110.99 31.5056 -109.807 31.2705C-109.641 31.2517 -109.478 31.2569 -109.314 31.2702C-108.561 30.9194 -107.82 30.4383 -106.96 30.7344C-106.893 30.0694 -106.827 29.4043 -106.76 28.7392C-106.37 28.7387 -105.979 28.7462 -105.596 28.745C-105.027 28.048 -104.465 27.3424 -103.895 26.6375C-103.548 26.181 -103.186 25.7419 -102.748 25.4302C-102.31 25.1184 -101.81 24.9247 -101.186 24.9431C-101.201 24.7319 -101.217 24.5206 -101.232 24.3174C-101.019 24.2862 -100.814 24.2625 -100.609 24.2388C-100.185 23.5058 -99.7621 22.7728 -99.3387 22.0398C-99.5988 21.7602 -99.859 21.4805 -100.119 21.2009C-97.5832 20.6476 -96.3949 17.1656 -93.2893 17.8541C-91.3881 16.91 -89.3701 16.1774 -87.7918 14.6496C-87.5771 14.6024 -87.3624 14.5552 -87.1477 14.508C-86.9827 14.1903 -86.8101 13.8731 -86.6451 13.5553C-86.8719 12.7372 -86.6193 11.9903 -86.3054 11.2565C-84.7668 10.5575 -84.8373 7.99915 -82.7309 7.95218C-82.6845 7.754 -82.6297 7.54842 -82.5834 7.35024C-81.933 7.33038 -81.2521 7.21607 -80.847 7.95176C-80.0671 7.97473 -79.8322 7.3557 -79.546 6.78119C-77.4583 4.93133 -76.3589 2.30642 -74.7064 0.114241C-74.5212 0.145442 -74.3341 0.152543 -74.1452 0.135582C-73.4227 0.194282 -72.6931 0.261647 -72.0714 0.514105C-71.4425 0.775233 -70.9138 1.22209 -70.5788 2.0571C-68.7323 2.23944 -69.7313 3.95969 -69.1807 4.83645L-67.5584 5.08946C-66.7225 6.22365 -67.5077 8.31662 -65.508 8.74566C-64.7461 9.10645 -63.7885 8.44108 -62.8742 9.46857C-64.5183 9.70657 -66.3971 9.84475 -65.0783 12.2299C-64.9145 12.2351 -64.7448 12.265 -64.5841 12.3104C-63.2506 11.6352 -62.7354 12.8726 -62.0768 13.5642C-61.4975 14.1687 -61.2179 15.1123 -60.1652 15.0443C-60.0407 15.2564 -59.9155 15.4604 -59.7988 15.6719C-59.9615 16.0626 -60.1248 16.4613 -60.2797 16.8526C-59.9882 17.5387 -59.5911 18.0718 -58.753 17.946C-58.4913 17.6926 -58.2542 17.5584 -58.0523 17.5748C-57.8269 17.5931 -57.632 17.8028 -57.4935 18.2422C-56.3746 18.842 -55.1886 19.3827 -54.9278 20.8821C-54.7155 22.4019 -54.03 23.6612 -52.9944 24.7389C-52.9192 25.0843 -52.8432 25.4216 -52.768 25.767C-51.7186 26.4581 -50.6697 27.1573 -49.6209 27.8564C-47.4888 28.3931 -45.7791 30.1638 -43.4437 30.087L-43.2883 30.0996C-42.6358 30.1526 -42.4168 30.6632 -42.2751 31.2644C-41.2624 31.5163 -40.7431 32.1886 -40.692 33.259C-40.1942 33.2914 -39.6886 33.3244 -39.1907 33.3567L-39.1829 33.3573C-37.842 32.8928 -37.5891 33.7777 -37.4823 34.8365C-38.8428 36.4789 -36.3816 37.212 -36.484 38.5527C-36.4932 38.6731 -36.5185 38.8003 -36.5756 38.933C-34.3123 40.3124 -34.9847 42.875 -34.3418 44.8982C-34.1215 45.5947 -34.7079 46.6214 -33.9449 47.0711C-32.9944 47.625 -32.7263 46.4674 -32.2495 45.9568C-31.8494 45.5289 -31.4467 45.2708 -31.0039 45.3068C-30.7709 45.3257 -30.5284 45.4262 -30.2622 45.6255C-29.8603 45.4805 -29.4655 45.3267 -29.0635 45.1817C-28.8859 45.1073 -28.7083 45.0329 -28.5306 44.9584C-27.7065 44.7104 -27.1715 43.4371 -26.1331 43.9658C-25.7152 43.612 -25.2903 43.2668 -24.8653 42.9217C-24.6226 42.6102 -24.3728 42.3074 -24.1307 42.0039C-23.0153 42.24 -21.8998 42.476 -20.7928 42.7194C-18.9799 43.9572 -17.3445 43.9366 -16.2503 41.788C-15.6528 40.6167 -14.697 40.8963 -13.7914 40.8083C-13.2228 39.8125 -12.375 39.6633 -11.3894 39.9615L-10.8778 40.6331C-10.7051 40.6229 -10.5341 40.6368 -10.3573 40.6754C-9.21585 41.3902 -7.76551 41.5403 -7.37395 43.3735C-7.07351 44.7631 -5.76612 44.3281 -4.75665 44.0062C-4.33059 43.4431 -3.90454 42.8799 -3.48633 42.3161C-3.31827 42.2651 -3.15984 42.2376 -2.98705 42.2274C-2.07353 40.5003 -0.385518 42.6569 0.635816 41.4636C1.67034 42.1454 2.73307 42.7649 3.84381 43.2671C4.9546 43.7693 6.1134 44.1543 7.33228 44.3664L7.34007 44.367C7.92432 43.8814 8.42272 43.2917 8.97122 42.7628C9.51966 42.2338 10.1254 41.7741 10.9076 41.563C11.4596 41.0909 12.1011 41.2884 12.7251 41.3068C13.5238 41.1859 14.3226 41.065 15.1207 40.9521C15.4439 40.7118 15.7665 40.4796 16.082 40.2386C16.5098 38.7305 17.3792 37.5813 18.8765 37.2183C20.079 36.9283 20.0174 38.2481 20.4841 38.8918C20.5299 39.0087 20.5686 39.1168 20.6066 39.233C20.809 39.3464 21.0115 39.4597 21.221 39.5818C22.6203 40.1963 23.589 41.5351 25.0853 42.0041C25.2356 42.1859 25.3704 42.3665 25.5057 42.539C25.5679 42.5441 25.6306 42.5412 25.6928 42.5462C26.7415 42.6314 27.6994 43.0889 28.6161 43.7773L28.6985 43.8244C30.3647 43.9113 31.1329 45.1127 31.6127 46.5088C31.9443 47.4889 32.1739 48.3719 33.4445 48.1116C34.4023 47.3413 35.106 47.8508 35.7602 48.5987C35.7008 48.7635 35.7351 48.9278 35.8257 49.0725C36.0809 49.4164 36.3277 49.7676 36.5164 50.1626C36.5925 50.3949 36.6446 50.6335 36.6818 50.8627C36.938 50.9885 37.1985 51.0581 37.4548 51.079C38.7833 51.1869 40.0943 50.0898 41.4261 50.0526C41.6769 49.5317 41.9355 49.0115 42.1934 48.4993C44.0617 48.6027 45.9299 48.706 47.7981 48.8093C48.6362 47.7626 49.2932 46.4266 50.3536 45.7454C52.031 44.6619 52.1043 43.1896 52.0286 41.5194C52.8895 41.0966 53.9171 40.9458 54.4008 39.935C55.1126 39.6212 55.8442 39.3576 56.4779 38.9405C57.111 38.5315 57.6452 37.9852 57.9307 37.1118C58.5793 36.809 59.2361 36.4989 59.893 36.1888C60.3182 35.7386 60.7124 35.8999 61.0242 36.3211C61.321 36.7329 61.0935 37.2557 61.1841 37.7073C61.5011 39.1871 62.0778 40.1306 63.5949 38.7917C63.8182 38.6322 64.0408 38.4806 64.2718 38.3217C64.7036 37.5813 64.8245 36.8156 64.4645 36.0028C64.6313 35.9679 64.7975 35.941 64.9625 35.9302C65.9122 34.0363 66.9436 33.8374 67.9631 35.8428C68.527 36.9549 69.5312 37.5212 70.4222 38.2398C70.4411 38.4029 70.4677 38.5666 70.502 38.7309C70.3229 38.9264 70.2579 39.1635 70.2312 39.4117C70.4473 39.8574 70.6461 40.3259 70.8274 40.8172C71.4214 41.8429 72.1511 42.8312 71.7063 44.1521C71.626 44.5899 71.5534 45.0283 71.5114 45.4772C71.4727 45.676 71.4574 45.8767 71.4499 46.0781C71.4684 46.3462 71.4883 46.5982 71.6944 46.6634C72.6212 47.1184 73.5401 47.5727 74.4669 48.0277C75.6069 47.3287 76.4122 48.1453 77.2868 48.6687C77.6018 48.0238 77.9627 47.8028 78.3511 47.8344C78.7396 47.8659 79.1706 48.1594 79.5978 48.5011C79.7714 48.6848 79.9289 48.8753 80.0773 49.0813C80.0917 49.0986 80.1053 49.1239 80.1112 49.1486C82.4926 49.3906 84.8122 50.0314 87.2124 50.1295C87.6875 50.1519 88.0573 50.5293 88.0934 51.0816C88.1388 51.1014 88.1842 51.1213 88.2218 51.1405C89.3971 50.3878 90.8505 51.1117 92.0477 50.482C92.449 50.3449 92.8456 50.1672 93.241 50.0054C95.4997 50.3182 95.8007 50.7788 94.6537 52.697C94.6537 52.697 94.6751 52.723 94.6817 52.7397C96.0645 51.9312 97.7119 52.162 99.1546 51.5925C99.7084 51.4033 100.237 51.1392 100.841 51.2045C101.596 51.4597 102.405 51.6143 102.996 52.1632L103.012 52.1644C103.254 52.0629 103.501 52.0022 103.76 51.9829C106.258 52.0323 108.851 52.5742 110.941 50.4902C111.121 50.2787 111.315 50.1006 111.538 49.933C111.743 49.8123 111.961 49.7169 112.186 49.6382C112.286 49.2586 112.667 48.9745 113.01 48.7763C114.057 48.1666 114.48 47.1347 115.016 46.1604C115.943 45.2825 117.079 45.1406 118.26 45.1395C118.325 45.2014 118.4 45.2398 118.474 45.2943C118.645 44.3953 119.219 44.2481 120.017 44.5392C119.986 42.6949 121.363 41.7566 122.42 40.6066C123.065 40.1501 123.819 39.6863 124.555 39.9884C128.02 41.3847 131.509 40.3273 134.978 40.1486C136.548 40.0662 137.698 40.3615 137.794 42.1788C137.857 43.4926 138.748 43.2984 139.546 43.5974C141.279 44.2471 143.487 43.7804 144.728 45.6583C147.125 44.1567 148.852 44.2566 150.432 45.9845C150.858 47.0691 151.116 48.1968 151.325 49.3447C151.55 51.9317 152.66 53.5649 155.421 53.4418C160.43 52.2333 164.848 54.3693 169.33 56.0744C169.778 56.2481 170.005 56.7513 170.197 57.2111C170.209 57.2606 170.213 57.3093 170.225 57.3588C170.483 57.4525 170.723 57.5851 170.945 57.7565C171.018 57.8271 171.082 57.905 171.146 57.983C173.568 56.9842 175.737 57.5401 177.31 59.5662C177.499 57.7155 178.74 57.5336 180.344 57.9144C181.338 58.5122 182.469 56.2937 183.428 57.4541C183.644 57.4958 183.849 57.5691 184.045 57.6738C184.526 58.0199 184.936 58.4894 185.543 58.6276C185.65 57.7396 185.679 56.6354 186.904 58.722C187.112 59.0701 187.468 59.3171 187.846 59.0732C189.188 58.1886 190.284 58.7786 191.382 59.3444C191.714 59.2986 192.051 59.2856 192.392 59.3214C192.639 59.2607 192.892 59.2328 193.15 59.2295C194.284 59.5236 195.48 59.023 196.626 59.1646C197.296 59.0898 197.947 58.9568 198.558 58.6268C198.513 58.51 198.467 58.3932 198.46 58.2715C198.451 57.98 198.503 57.7176 198.632 57.4615C198.79 57.232 198.999 57.0551 199.236 56.9209C199.26 56.9148 199.283 56.9167 199.314 56.9192C199.42 55.3283 200.553 55.4366 201.889 55.8601C202.624 56.2672 203.346 56.7379 204.224 56.1953C206.332 54.8964 208.403 55.9209 210.497 56.2445C210.577 56.0168 210.731 55.8435 210.958 55.7327C212.291 55.6875 213.465 55.9687 214.145 57.3083C214.382 57.6749 214.501 58.0723 214.413 58.5094C214.404 58.5248 214.395 58.5322 214.379 58.539C214.751 58.8923 214.927 59.3429 214.966 59.855C215.001 60.7302 214.92 61.588 214.693 62.4177C214.895 63.2419 215.565 63.3851 217.052 62.9486C219.106 62.3562 221.606 61.3557 223.147 64.2112C223.146 64.2192 223.131 64.218 223.121 64.2334C226.003 66.1154 226.028 62.7166 227.375 61.7678C227.494 61.6322 227.6 61.5842 227.707 61.6091C227.71 61.577 227.728 61.5461 227.738 61.5146C228.605 59.9857 229.743 58.7937 231.218 57.8069C233.509 56.2643 235.623 56.42 237.812 57.8579C238.184 58.1063 238.604 58.2373 239.022 58.3844C239.418 57.8107 239.731 57.0849 240.488 57.203C240.537 57.1747 240.571 57.1451 240.628 57.1174C241.514 57.0763 242.008 57.4638 242.053 58.3156C243.025 57.5625 244.369 58.2777 245.366 57.6155C247.149 57.0899 249.114 57.1606 250.615 55.7236C250.951 55.4116 251.472 55.4459 251.885 55.7702C251.537 54.5949 251.84 53.6986 252.917 53.1076C253.44 53.0208 253.958 52.9982 254.443 53.0942C255.073 52.8223 255.619 52.4304 255.819 51.55C256.496 50.773 257.108 49.9261 257.856 49.2437C258.502 48.6661 259.317 47.7145 259.989 49.2554C260.979 48.8754 261.543 49.8906 262.273 50.3619C263.305 50.7608 264.341 50.7157 265.31 50.2048C268.226 48.6645 270.793 49.4466 273.209 51.3877C274.409 52.4626 276.406 52.1079 277.372 53.5839C277.14 52.1191 278.57 51.9122 279.254 51.1438C279.485 50.9929 279.742 50.8926 280.019 50.8505C280.486 50.8804 280.933 50.8601 281.367 50.8065C281.482 50.7351 281.597 50.6637 281.712 50.5922C281.691 50.4532 281.679 50.3068 281.666 50.1685C282.244 47.0004 283.958 48.3109 285.503 48.9535C285.453 48.8929 285.402 48.8483 285.359 48.7883C285.157 48.368 285.151 47.9313 285.186 47.4817C285.209 47.1766 285.301 46.8933 285.438 46.6299C286.431 44.683 287.7 43.2189 290.12 43.666C291.223 43.8686 292.027 42.8596 293.036 42.6347C293.043 42.5544 293.071 42.4921 293.084 42.4204C293.186 42.1056 293.34 41.8354 293.554 41.5943C295.248 40.488 296.98 39.6108 299.105 39.832C301.618 40.0927 302.501 41.1257 302.066 43.643C302.168 43.8452 302.261 44.0627 302.345 44.2877C302.352 44.3044 302.359 44.321 302.357 44.3371C303.027 44.3753 303.743 44.5143 303.993 43.4926C305.442 42.229 306.857 40.898 308.956 41.1493C309.007 41.0969 309.058 41.0445 309.102 40.9754C309.136 40.9458 309.17 40.9082 309.203 40.8786C309.16 40.6247 309.188 40.3604 309.279 40.0931C309.79 39.238 310.468 38.6468 311.5 38.6499C312.731 39.4204 314.375 39.6913 315.037 41.1587L315.06 41.1606C315.505 41.1725 315.939 41.2239 316.366 41.3556L316.751 41.8473C317.723 41.3042 318.656 41.8728 318.971 42.6658C319.542 44.0935 320.628 44.408 321.729 44.8367C321.529 44.2872 321.675 43.8064 322.097 43.3883C322.188 43.323 322.287 43.2664 322.385 43.2097C322.377 43.0071 322.47 42.8127 322.671 42.6272C324.086 42.6371 325.524 42.9397 326.422 41.4213C326.471 41.183 326.588 40.9905 326.742 40.8172C326.892 40.5871 327.092 40.4256 327.342 40.3248C327.714 40.0642 328.108 39.8135 328.323 39.4593C328.474 39.2132 328.647 39.001 328.835 38.7901C331.296 37.4714 332.468 34.9251 334.068 32.8014C334.469 32.2604 334.736 31.6359 335.377 31.3245C335.649 31.2496 335.924 31.2315 336.202 31.2703C336.339 31.3138 336.475 31.3814 336.594 31.4557C336.181 30.3155 336.764 29.7489 337.95 29.5626C339.461 29.3299 340.963 29.3145 342.408 29.9489C342.47 30.1639 342.526 30.3543 342.566 30.5434C342.583 30.5206 342.593 30.4971 342.602 30.4736C344.417 29.1347 346.63 28.4987 348.194 26.6547C349.104 25.5897 350.238 25.3749 351.828 26.5623C353.114 27.5311 355.225 27.331 357.027 27.5744C357.526 26.6698 358.2 26.5468 359.033 27.0992L359.037 27.059C359.565 26.593 360.084 26.6514 360.584 27.0637C360.584 27.0637 360.608 27.0495 360.617 27.0421C360.603 27.0167 360.582 26.9908 360.568 26.9654C360.746 25.3482 361.479 24.9634 362.862 25.7866C363.348 26.0765 363.777 26.4021 364.146 26.7956C364.485 26.3385 364.832 25.8981 365.466 25.877C367.274 26.2582 367.846 27.5809 368.044 29.1803C368.561 29.2628 368.978 29.547 369.374 29.8781C369.668 30.0231 369.964 30.1441 370.276 30.2503C371.343 31.0235 373.447 30.8067 372.885 33.1441C372.746 33.3266 372.572 33.4579 372.385 33.5558C373.807 34.1722 374.893 35.0035 374.545 36.6958C375.398 35.9654 376.153 36.3096 376.969 37.4017C378.097 38.907 379.079 40.5783 380.773 41.5318C381.603 41.8173 382.159 41.2969 382.728 40.802C382.944 40.6337 383.187 40.5242 383.443 40.4561C385.536 40.4727 386.763 42.2284 388.13 43.3573C389.587 44.55 390.642 45.0639 392.362 44.2504C393.173 43.8639 394.153 43.5155 395.072 44.0748C394.524 42.544 395.977 42.2501 396.683 41.4996C396.894 41.4036 397.11 41.3323 397.325 41.2851C397.252 40.3987 398.016 39.9115 398.828 39.517C399.908 38.9909 401.042 38.5741 401.985 37.7864C402.254 37.6387 402.534 37.5644 402.832 37.5483C405.154 37.85 406.957 36.3566 408.962 35.5825C410.533 34.975 411.887 34.9558 413.182 36.1112C413.306 36.2343 413.396 36.387 413.462 36.5378C415.505 35.064 417.723 34.7918 419.676 35.734C419.694 35.6951 419.712 35.6643 419.739 35.626C419.936 35.2867 420.207 35.0179 420.528 34.8097C420.419 34.3889 420.462 33.9319 420.521 33.4681C421.61 28.1121 425.576 26.1321 430.072 24.7769C430.514 24.8209 430.916 24.7808 431.291 24.682C432.117 24.1029 432.919 23.4329 433.847 23.1449C434.296 22.7936 434.752 22.451 435.249 22.1925C435.71 21.9957 436.179 21.7914 436.64 21.5785C437.583 21.4128 438.155 20.5788 438.968 20.1682C439.112 20.1314 439.253 20.1187 439.394 20.122C439.174 19.4095 439.308 18.7822 440.186 18.6516C441.143 18.5032 441.197 19.3395 441.089 20.0336C440.902 21.2543 441.591 22.0615 442.23 22.905C442.482 23.9029 442.983 24.9211 442.286 25.858C443.148 26.1301 443.642 26.9376 444.338 27.4465C444.494 27.5561 444.633 27.6805 444.772 27.8049C445.359 28.2 445.75 28.7083 445.986 29.3091C446.242 29.7419 446.465 30.2042 446.671 30.6734C446.776 30.9404 446.818 31.2103 446.828 31.4858C446.949 31.5361 447.062 31.5937 447.184 31.6359C447.441 31.7537 447.663 31.9092 447.86 32.1028C447.952 32.2234 448.028 32.3507 448.104 32.4861C450.163 32.3384 451.598 33.1982 452.081 35.6851C452.31 36.883 453.059 37.5174 454.303 37.4974C457.425 37.4682 460.545 37.4471 463.325 35.6373C463.481 35.44 463.645 35.2353 463.809 35.0385C463.708 33.3905 465.198 33.2287 466.088 32.8325C466.775 32.533 467.132 33.701 467.421 34.4192C467.558 34.7696 467.944 35.3502 467.959 35.3515C470.183 34.0701 472.668 36.0248 474.869 34.7496C475.07 34.564 475.265 34.3699 475.459 34.1837C475.709 32.952 477.099 32.2571 476.949 30.8393C477.505 30.626 478.068 30.4212 478.623 30.2159C479.153 29.9278 479.529 29.821 479.793 29.8425C480.741 29.9195 480.355 31.5926 480.855 32.2148C482.175 32.3221 483.494 32.4535 484.814 32.5769L484.815 32.5608C484.846 31.9494 484.877 31.338 484.908 30.7266C485.161 30.1736 485.407 29.62 485.652 29.0664C487.06 27.7268 488.605 27.7635 490.116 28.7506C490.728 29.1396 491.313 29.4538 491.986 29.5569C491.986 29.5488 491.988 29.5328 492.004 29.526C492.205 29.3485 492.418 29.2124 492.654 29.0942C492.812 29.0747 492.977 29.0638 493.141 29.069C493.352 28.3431 493.727 27.7435 494.352 27.3338C494.621 26.7821 494.882 26.2218 495.151 25.6701C496.938 22.1237 498.638 21.874 501.119 24.7009C501.86 25.5446 502.81 26.2035 503.668 26.9437L503.676 26.9443C503.968 25.9906 504.259 25.0449 504.558 24.0918C504.744 23.913 504.93 23.7262 505.116 23.5393C506.306 23.6279 506.569 24.7882 507.244 25.4731C508.77 25.9526 510.402 26.0852 511.823 26.9196C514.574 25.5033 515.017 27.68 515.594 29.6494C518.695 27.5345 520.95 29.5271 523.127 31.4166C524.293 32.4241 525.348 33.2529 526.912 32.4268C527.785 33.3863 528.691 33.9042 529.631 33.9806C530.571 34.057 531.577 33.6783 532.602 32.8488L532.58 32.8228C532.958 32.0699 533.589 31.7981 534.363 31.7883C535.697 31.3151 537.036 30.8745 538.35 30.3512C539.141 30.0357 539.691 30.2986 539.956 31.0229C540.874 33.5371 542.236 33.5184 543.715 32.8792C544.076 32.6662 544.419 32.3709 544.747 31.9614C544.967 31.64 545.158 31.292 545.348 30.9521C545.604 30.5609 545.852 30.1772 546.101 29.7854C547.821 28.8669 549.368 27.7406 550.612 26.2018C550.64 26.1314 550.669 26.061 550.691 25.982C550.73 25.8801 550.776 25.787 550.822 25.6938C550.815 25.5882 550.839 25.4771 550.926 25.363C551.016 25.2007 551.091 25.0371 551.151 24.8643C551.357 24.7356 551.554 24.6142 551.759 24.4855C551.994 24.2704 552.244 24.0645 552.502 23.8674C552.629 23.8373 552.764 23.8159 552.891 23.7859C553.921 24.225 554.912 24.2489 555.802 23.4408C556.023 22.8933 556.237 22.6522 556.424 22.6673C556.633 22.6844 556.821 22.9904 556.992 23.5133C558.002 23.4903 558.156 22.3961 558.831 21.9582C560.206 21.246 560.856 21.848 561.045 23.2689C564.379 24.1376 567.592 23.7202 570.725 22.4156C570.728 22.3755 570.7 22.3328 570.696 22.284C570.945 22.0862 571.203 21.881 571.453 21.6832C571.691 21.3229 571.93 20.9626 572.168 20.6103C573.387 18.6657 574.81 19.686 576.208 20.3166C576.199 20.437 576.19 20.5574 576.181 20.6778C576.197 20.6711 576.205 20.6717 576.213 20.6643C580.313 19.6888 584.422 18.8029 588.676 19.294C589.73 19.4199 590.461 19.8752 590.77 20.9504C592.052 22.5893 593.368 24.1907 595.62 24.3818C595.779 24.3462 595.93 24.3181 596.088 24.2906C596.204 23.4922 596.755 23.0361 597.328 22.5979C597.364 22.2213 597.401 21.8366 597.438 21.4599C600.211 19.2295 603.349 20.1145 606.416 20.2829C607.498 20.3386 607.634 21.4239 608.319 21.8754C608.121 22.2147 607.915 22.5535 607.71 22.8922C607.676 23.7377 607.832 24.4692 608.74 24.7611C609.105 24.5888 609.471 24.3924 609.829 24.4214C610.062 24.4403 610.295 24.5563 610.515 24.8488C610.893 26.9717 613.721 28.3243 612.328 31.006C612.508 31.2065 612.68 31.4143 612.851 31.6221C613.823 31.8949 614.404 32.4753 614.375 33.5796C614.703 34.3009 615.231 34.7478 616.012 34.8597C617.272 32.5952 618.828 32.0754 620.809 33.9811C622.857 35.2138 624.633 33.6538 626.535 33.4125C627.08 33.5456 627.624 33.6867 628.177 33.8205C629.251 33.0676 630.339 32.3321 631.406 31.5545C632.341 30.8792 633.249 30.6621 634.164 31.5766C634.367 31.577 634.562 31.5847 634.765 31.5931L634.72 31.6622C636.902 30.8378 638.88 30.11 640.138 33.2979C640.636 34.5501 642.564 33.8746 643.809 34.2505C645.782 33.288 645.42 35.7869 646.484 36.1803C647.14 36.8071 647.716 37.7587 648.513 37.7669C648.555 37.4149 648.613 37.0642 648.649 36.7036C648.97 35.3645 649.803 34.3741 650.77 33.4833C651.253 32.9974 651.949 32.7874 652.354 32.1983C652.538 31.9305 652.733 31.7363 652.925 31.5822C653.634 30.4847 654.712 30.5885 655.796 31.549C656.659 32.3219 657.523 32.6828 658.459 32.7023C658.805 32.5769 659.15 32.3626 659.506 32.0038C659.743 31.8696 659.999 31.7854 660.268 31.7426C660.361 31.7582 660.437 31.7806 660.514 31.803C661.011 31.3264 661.611 31.052 662.093 31.39C664.059 32.7776 665.532 32.0088 666.989 31.0528C667.116 30.6188 667.219 30.191 667.152 29.7332C667.77 28.297 668.308 26.7736 670.125 26.5255C669.979 26.1904 670.04 25.9046 670.402 25.6674L670.38 25.6415C670.602 25.086 670.904 24.6097 671.476 24.3976C671.566 23.2094 672.555 22.6436 673.5 22.0498C674.216 21.9868 674.905 21.7681 675.605 21.6069C675.584 21.476 675.656 21.3526 675.836 21.238C675.865 21.0707 675.9 20.912 675.936 20.7533C676.295 20.7583 676.647 20.7546 677.006 20.7596C678.466 19.8684 679.009 21.0515 679.696 21.9878C681.181 24.031 682.26 26.5905 685.228 26.8316C685.4 26.8214 685.58 26.8199 685.752 26.8177C685.942 26.6878 686.115 26.6775 686.27 26.7951C686.396 26.6761 686.525 26.5331 686.639 26.3647C688.069 25.8589 689.641 27.691 691 26.0647C691.068 25.9005 691.128 25.7278 691.18 25.5543C691.385 25.4336 691.589 25.3209 691.793 25.2082C692.938 24.0249 694.07 22.8244 695.429 21.909C696.127 21.6749 696.878 21.7763 697.241 22.347C698.862 24.8697 701.735 26.2503 702.893 29.2039C703.718 31.2905 705.046 29.4677 706.148 29.4684C706.153 29.3962 706.182 29.3338 706.195 29.2622C707.335 27.6423 708.897 27.0502 710.798 26.7201C713.452 26.2571 715.986 25.219 718.69 24.8087C720.375 24.5578 720.704 21.9834 722.542 21.5672C723.272 21.1096 723.882 20.4968 724.504 19.9173C726.476 19.3828 726.88 21.2654 727.613 22.3025C728.199 23.1256 728.764 23.6077 729.437 23.7028C729.937 23.6061 730.428 23.4278 730.936 23.2187C730.984 22.1805 731.545 21.798 732.513 22.3209C733.242 22.7033 733.898 22.9181 734.666 22.5847C734.845 22.3973 735.016 22.2011 735.187 22.0131C736.527 23.0993 737.094 25.2942 739.213 25.2806C739.214 25.2645 739.215 25.2565 739.216 25.2404C740.006 23.7051 740.981 23.9378 741.855 25.0752C742.589 26.0153 742.646 27.2074 742.821 28.401C743.124 30.4774 743.472 32.6706 745.949 33.3969L741.074 97.2608L740.876 97.3012L739.963 93.075L738.031 94.1216L735.405 92.0665L735.199 94.7639L732.276 96.6025L731.016 92.8327L728.506 93.3477C728.506 93.3477 726.627 93.5909 725.965 94.1753C725.303 94.7596 722.884 98.077 722.834 96.7966C722.775 95.5155 722.272 91.9608 722.272 91.9608L719.549 93.2339L717.895 96.67L716.014 92.9467L713.862 92.7718L711.565 94.6047C711.565 94.6047 708.355 92.1063 708.391 91.6326C708.427 91.159 706.13 92.8868 706.13 92.8868L704.893 94.8623L702.615 96.4302L700.417 94.8137L698.001 96.0553L693.874 97.481L692.072 94.7738L692.253 92.3975C692.253 92.3975 688.221 94.6225 687.763 94.5853C687.305 94.5481 686.286 93.6655 686.286 93.6655L682.423 93.6749L680.511 96.3953L678 92.8389L675.291 95.9711L675.582 92.1577L674.128 90.9249L672.106 93.1516L669.662 92.7996L666.994 95.297C666.994 95.297 666.112 96.8167 665.861 96.0047C665.611 95.1846 664.946 93.8543 665.007 93.0595L665.186 90.7073L661.688 91.9902L661.579 93.4192L660.468 95.7846L659.415 93.4049L657.858 95.5726L655.861 95.4103L655.062 93.6894L653.537 93.4039L651.099 95.0234L648.385 96.1761L646.47 96.9818L644.391 95.8516L643.248 94.6441L641.506 95.1407L639.602 97.8617L636.078 99.4898L633.157 99.2525L631.015 100.993L628.346 99.4997L627.155 98.9264L626.252 100.606L624.385 102.853L618.084 102.341L616.568 103.971L615.185 103.859L614.513 102.528L611.651 103.572L606.199 106.166L604.443 104.909L600.862 103.18L597.793 102.93L597.097 101.913L595.122 103.513L591.757 104.993L588.075 104.693L587.053 105.887L584.14 105.65L581.508 107.674L579.317 110.049L579.656 105.609L577.983 105.311L575.734 106.405L571.619 107.67L569.948 109.287L567.83 106.724L565.052 106.66L563.092 106.016L560.003 105.927C560.003 105.927 558.596 106.135 558.341 105.477C558.08 104.809 557.223 103.948 557.223 103.948L555.253 105.379L555.168 106.495L552.903 107.902L551.837 105.586L550.911 103.588L549.419 104.905L548.528 106.432L547.216 107.44L545.22 107.278L545.304 106.17L543.068 107.103L542.151 107.029L541.347 105.372L540.348 104.33L537.932 105.571L536.02 104.301L534.468 106.405L532.16 106.217L532.415 102.885L530.185 103.827L529.307 105.194L528.25 106.861L527.59 105.369L526.098 106.686L526.182 105.578L524.509 105.28L522.813 107.219L521.585 107.119L521.779 104.582L519.278 106.931L517.822 107.774L518.053 104.756L516.573 105.912L515.116 104.832L514.118 105.712L512.912 107.375L509.067 107.063L508.296 105.078L507.502 105.336L504.385 105.721L503.545 104.538L502.546 103.496L501.236 106.427L499.819 104.712L498.781 106.227L497.243 106.102L495.571 103.729L494.6 102.212L494.504 103.481L492.359 103.306L491.389 101.79L489.826 101.986L487.347 102.099L486.336 101.218L484.906 99.6636L483.257 99.053L482.058 98.4789L480.311 99.1367L479.278 100.491L476.869 101.725L475.367 101.126L475.307 101.921L474.053 104.218L471.166 105.575L470.312 106.628L468.774 106.503L468.81 106.022L465.853 106.266L464.48 104.079L462.704 102.973L461.246 105.892L460.173 105.805L460.283 104.376L459.562 103.679L458.227 102.932L457.313 104.773L457.156 106.836L455.555 105.583L453.827 103.851L453.09 103.468L453.017 104.424L450.804 105.043L450.707 106.312L448.245 106.112L446.63 107.095L444.381 108.189L443.577 106.532L443.698 104.943L442.289 107.227L442.083 109.925L439.856 108.783L438.726 111.405L438.665 112.2L437.379 110.819L437.428 110.185L435.419 110.183L434.287 110.883L433.085 108.394L433.267 106.01L432.51 105.787L431.21 106.642L429.611 107.312L427.614 107.15L427.518 108.418L425.485 108.73L424.836 107.086L423.357 108.242L422.299 109.909L422.445 108.006L420.64 107.383L419.364 107.917L416.443 107.68L417.006 110.44L416.297 109.583L415.009 110.278L414.07 112.439L412.411 109.905L412.605 107.368L411.789 105.864L410.635 104.809L409.708 106.81L408.372 108.139L406.243 107.651L406.377 105.901L407.291 104.061L405.608 105.838L404.148 106.843L403.296 105.812L401.516 104.868L400.518 105.748L400.627 104.319L399.162 103.239L396.348 103.648L394.375 103.173L393.364 102.291L391.523 102.141L389.358 102.127L387.039 102.092L386.027 101.218L385.016 100.336L383.512 101.806L382.792 101.109L380.195 102.659L379.953 105.83L378.8 102.707L377.042 103.517L375.31 101.939L375.104 104.636L373.17 105.602L371.232 106.721L369.487 105.303L368.684 103.638L367.093 104.309L366.265 102.965L365.547 100.192L365.402 102.095L361.765 103.238L361.959 100.701L360.637 99.7936L359.412 101.608L357.536 99.8567L356.02 101.494L355.839 103.871L353.517 101.929L352.11 102.13L350.574 99.9292C350.574 99.9292 348.946 101.081 349.041 101.881C349.128 102.687 348.771 105.219 348.771 105.219L346.938 101.072L347.951 99.8776L345.991 99.2417L346.1 97.8128L344.509 98.4832L343.116 100.446L341.418 100.47L339.169 101.563C339.169 101.563 338.352 102.135 338.085 101.629C337.811 101.13 337.342 99.1772 337.342 99.1772L335.993 100.667L333.888 101.934L332.386 101.327L332.265 102.917L330.882 102.804L329.895 101.609L328.429 100.529L326.435 98.291L326.277 100.354L324.773 101.831L323.231 105.858L321.188 104.254L319.562 103.323L319.745 100.938L317.037 101.995L315.931 100.313L316.222 96.4999L314.382 98.273L313.145 96.25L311.811 95.5034L312.09 91.8506L310.765 93.0273C310.765 93.0273 310.066 94.0854 309.656 93.4139C309.239 92.7418 308.95 90.4808 308.95 90.4808L309.108 88.4175L307.026 89.3632L306.293 88.827L305.199 86.9852L306.162 84.5028L304.057 85.7696L302.504 87.881L300.747 86.6235L299.102 85.8517L297.516 86.3609L296.589 84.3631L295.243 83.7772L295.642 78.5428L292.041 79.1226L290.997 80.718L288.437 81.7863L287.042 81.8346C287.042 81.8346 285.476 82.1839 285.033 81.8329C284.6 81.4745 283.82 79.4968 283.82 79.4968L283.627 82.0337L281.111 82.629L281.244 80.8868L279.585 82.3434L278.19 82.3917L276.696 81.7936L276.072 79.8204L274.485 80.3377L274.292 82.8746L272.753 82.7496L271.021 81.171C271.021 81.171 271.405 80.2409 271.118 79.9026C270.84 79.5569 268.952 77.9656 268.952 77.9656L269.007 77.2511L266.322 77.9134L264.838 79.2307L262.53 79.0433L260.907 80.0262L258.586 82.0751L256.91 83.8535L254.818 82.8918L254.66 84.9551L252.809 86.8807L251.4 85.1668L249.971 83.6128L249.204 81.4744L247.987 83.29L246.301 83.153L242.671 82.0584L241.371 82.9141L240.602 82.8516L239.385 84.6671L236.982 83.6723L236.031 85.9941L232.902 86.5396L231.519 86.4272L230.52 85.3848L229.646 82.5996L228.343 85.531L227.465 86.8976L226.272 88.392L226.139 90.1421L224.831 90.9971L223.508 90.09L222.005 91.5592L220.424 94.1449L217.779 92.3386L217.913 90.5885L216.689 86.3371L216.337 90.9453L214.955 90.8329L213.463 92.1495L212.357 94.4508L210.409 93.6543L209.264 94.5226L207.667 93.1085L206.379 93.8035L206.246 95.5537L203.211 96.9066L202.047 97.9267L200.724 97.0195L200.664 97.8143L198.437 96.6722L197.115 99.7635L194.645 101.801L194.031 101.751L193.396 99.938L194.47 97.9493L192.578 100.51L190.872 100.533L189.681 99.9593L187.566 99.3028L188.105 102.384L187.19 104.224L185.66 104.1L184.83 104.832L179.454 104.395L178.29 105.415L176.145 105.241L176.363 102.391L175.376 105.179L174.461 107.027L173.234 106.927L172.671 104.167L171.696 106.802L170.551 107.662L170.769 104.804L168.954 106.256L167.63 107.425L166.706 107.35L166.924 104.492L165.25 108.193L163.193 108.825L162.242 107.149L161.109 107.856L160.102 106.813L159.197 106.586L157.816 108.389L156.301 110.018L155.022 108.638L153.387 109.782L153.327 110.577L151.485 110.427L149.908 112.859L148.758 111.643L147.747 110.761L146.209 110.636L146.305 109.368L143.394 107.055L143.237 109.119L141.434 106.419L140.391 105.85L140.136 109.19L139.134 110.223L138.246 109.674L137.067 108.94L134.639 110.334L133.132 109.897L133.619 108.442L134.532 105.697L131.473 111.362C131.473 111.362 130.175 110.133 130.211 109.66L130.369 107.596L129.2 108.778L127.635 111.05L126.254 108.862L124.411 110.788L123.317 112.929L122.62 111.919L120.971 111.3L120.716 114.64L119.792 114.565L117.686 115.831L117.747 115.037L115.21 113.869L113.793 112.155L113.647 114.065L111.939 116.156L110.893 113.68L110.04 114.725C110.04 114.725 108.965 116.714 108.56 115.882C108.162 115.058 106.622 113.01 106.622 113.01L105.374 113.07L104.385 113.951L104.324 114.746C104.324 114.746 103.925 115.877 103.481 115.655C103.036 115.433 101.272 114.175 101.272 114.175L99.996 114.709L99.814 117.094L98.9726 117.978L97.7451 117.879L95.9741 118.858L94.4944 120.014L94.3614 121.756L90.6712 121.456L89.6815 122.337L88.5554 120.807L88.4463 122.236C88.4463 122.236 87.7358 123.455 86.9666 123.393L84.667 123.206C84.667 123.206 82.4161 126.375 82.7792 125.613C83.1506 124.843 84.033 119.325 84.033 119.325L82.648 117.193L81.4108 115.275L81.9034 120.905L81.7459 122.968L79.9552 120.109L79.1616 120.367L77.2843 120.691L76.1413 119.484L76.3595 116.626L74.2299 118.206L72.6896 120.157L72.0173 118.826L72.1142 117.557L70.1761 118.676C70.1761 118.676 69.6107 117.992 69.516 117.185C69.4213 116.377 68.9167 114.898 68.9167 114.898C68.9167 114.898 66.9541 116.338 66.7163 115.358L66.4857 114.386L63.5385 116.537L60.7728 116.313L57.6673 116.545L55.2169 116.184L53.7249 117.501L51.2945 116.98C51.2945 116.98 51.9061 119.106 51.137 119.044C50.3679 118.981 47.7958 116.219 47.7958 116.219L46.8812 114.069L47.0265 112.166L45.2823 114.739L44.0548 114.639L40.8693 115.818C40.8693 115.818 39.9308 113.981 39.9792 113.347L40.2697 109.541L37.7202 112.525L36.5268 114.028L34.8314 111.967L32.1019 111.269L29.8552 110.287L28.5429 107.304L28.6759 105.562L27.1717 107.039L26.3686 105.375L23.6273 104.829L22.6521 103.473L21.257 103.522L21.0995 105.585L18.8528 104.603L19.4644 106.728L18.5984 107.934L17.1086 107.175L15.9738 109.959L15.2068 107.82L15.3397 106.078L13.86 107.234L11.7081 107.059L10.9127 105.395L9.07358 103.17L9.20657 101.428L7.46279 100.002L7.20784 103.341L3.01087 103.639L3.16837 101.575L0.548159 103.438L-1.08928 102.667L-3.16832 101.537L-5.03344 101.701L-6.53549 101.102L-7.79698 99.4L-9.57814 98.4636L-10.565 97.2606L-10.456 95.8316L-11.8371 97.6419L-13.6804 99.5682L-14.7965 99.9541L-15.5333 99.5711L-16.8555 98.664L-18.6705 100.116L-19.5872 100.041L-20.8125 97.8659L-22.2806 98.8695L-23.2051 98.7943L-24.0444 97.6033L-24.7089 96.273L-26.6547 97.3912L-27.8822 97.2915C-27.8822 97.2915 -29.9272 97.7635 -29.7234 97.1419C-29.5196 96.5203 -28.7361 94.3464 -28.7361 94.3464L-30.7794 96.741L-32.8483 97.5261L-32.7392 96.0972L-35.158 95.424L-36.8684 95.6082C-36.8684 95.6082 -37.9504 97.5963 -38.0567 96.9414C-38.1637 96.2946 -38.7675 94.1695 -38.7675 94.1695L-40.2209 96.9271L-42.6758 96.7277L-42.5183 94.6645L-44.4347 97.546L-44.2894 95.6434L-45.9122 96.6263C-45.9122 96.6263 -47.4259 96.1802 -47.5452 95.6939C-47.6566 95.2083 -48.4598 93.5436 -48.4598 93.5436L-50.5416 94.4973L-50.408 92.7471L-53.6682 92.9588L-55.348 90.5929L-55.1537 88.0479L-56.6239 91.1273L-56.0239 93.4056L-58.3582 91.6246L-58.1762 89.2402L-59.9932 92.7681L-61.4729 93.9242L-63.5036 92.1597L-65.573 92.9528L-65.6821 94.3819L-68.1472 92.2671L-70.0608 93.0648L-71.6576 91.6588L-72.635 92.3791L-75.4954 91.347L-74.6092 93.9716L-76.529 92.7009L-77.89 94.3513L-81.3782 91.5072L-82.6909 92.5233L-85.0004 94.4117L-87.0433 92.8079L-88.8361 92.024L-90.7741 93.1429L-92.992 87.6878L-92.1569 93.0306L-93.4161 93.2433L-94.4275 92.3614L-94.6702 95.5405L-96.6769 93.463L-96.786 94.8921L-99.1947 96.1342L-100.357 95.0785L-101.225 94.3698L-102.646 96.8069L-104.063 95.0924C-104.063 95.0924 -106.24 95.2387 -106.359 94.7524C-106.47 94.2587 -106.963 92.6273 -106.963 92.6273L-108.263 97.4734L-109.427 98.4936L-111.596 98.6405L-114.997 96.6032L-117.44 96.2432L-119.243 97.5346L-120.676 100.132L-122.731 98.689L-125.211 98.8106L-126.077 100.017L-127.833 102.75L-128.483 102.56Z" fill="#121212"/>
</svg>
