<svg width="33" height="33" viewBox="0 0 33 33" fill="none" xmlns="http://www.w3.org/2000/svg">
<path d="M32.3262 16.166C32.3262 19.3147 31.3925 22.3926 29.6432 25.0107C27.8939 27.6287 25.4075 29.6692 22.4985 30.8741C19.5896 32.079 16.3886 32.3943 13.3004 31.78C10.2123 31.1658 7.37561 29.6495 5.14917 27.4231C2.92272 25.1967 1.4065 22.36 0.792225 19.2718C0.177951 16.1837 0.493219 12.9827 1.69816 10.0737C2.9031 7.16474 4.9436 4.67839 7.56162 2.92908C10.1796 1.17978 13.2576 0.246094 16.4062 0.246094V2.85457C13.7735 2.85457 11.1999 3.63527 9.01081 5.09795C6.82175 6.56063 5.11559 8.6396 4.10808 11.0719C3.10057 13.5043 2.83696 16.1808 3.35058 18.7629C3.86421 21.3451 5.132 23.717 6.99364 25.5786C8.85528 27.4403 11.2271 28.7081 13.8093 29.2217C16.3915 29.7353 19.068 29.4717 21.5003 28.4642C23.9327 27.4567 26.0116 25.7505 27.4743 23.5615C28.937 21.3724 29.7177 18.7988 29.7177 16.166H32.3262Z" fill="url(#paint0_linear_355_208)"/>
<defs>
<linearGradient id="paint0_linear_355_208" x1="12.7106" y1="1.38333" x2="29.4833" y2="21.2831" gradientUnits="userSpaceOnUse">
<stop stop-color="#D9D9D9"/>
<stop offset="1" stop-color="#121212" stop-opacity="0"/>
</linearGradient>
</defs>
</svg>
