<svg width="10" height="58" viewBox="0 0 10 58" fill="none" xmlns="http://www.w3.org/2000/svg">
<path d="M-25.0516 1.45025C-23.8157 1.24385 -22.5798 1.03745 -21.3439 0.831052C-20.6669 0.802244 -19.991 0.76014 -19.3146 0.748272C-12.5747 0.630336 -6.46697 2.53778 -1.17848 6.72312C6.21589 12.5754 9.87966 20.3156 9.75101 29.7283C9.65418 36.8631 7.05413 43.1061 2.19413 48.3268C-3.18402 54.1037 -9.90166 57.079 -17.7746 57.3671C-22.5126 57.5405 -27.0327 56.5239 -31.2514 54.3526C-38.1663 50.7927 -42.9025 45.3211 -45.4124 37.9453C-45.6788 37.1642 -45.9015 36.369 -46.1443 35.5805C-46.3508 34.3445 -46.5572 33.1084 -46.7636 31.8724C-46.7921 31.1773 -46.8329 30.482 -46.8468 29.7868C-46.9328 25.5729 -46.1899 21.5126 -44.4435 17.6712C-40.9811 10.0541 -35.2886 4.86843 -27.3585 2.16464C-26.5966 1.90483 -25.8207 1.68765 -25.0516 1.45025ZM-24.1233 42.4613C-17.7784 37.234 -11.5008 32.0608 -5.14894 26.8279C-12.8732 23.9368 -20.4934 21.0844 -28.1734 18.2095L-24.1233 42.4613Z" fill="white"/>
</svg>
