<svg width="154" height="42" viewBox="0 0 154 42" fill="none" xmlns="http://www.w3.org/2000/svg">
<path d="M274 9.78913V19.0892L273.534 18.4858L272.835 17.6014L272.231 17.2767L271.858 17.1361L271.625 17.88L271.254 17.3688L270.693 17.5553L269.948 18.0666L269.623 18.3453L269.111 17.88L268.459 17.4148L267.855 17.5093L267.156 17.3688L266.69 18.2072L266.457 18.5779L265.712 18.6724L265.06 18.2992L264.688 19.0892L264.176 19.5084L263.432 19.4624L262.359 18.9511L261.709 19.0432L261.381 19.3679L261.102 20.8096C261.102 20.8096 260.916 20.3444 260.87 20.2063C260.823 20.0657 260.171 20.1602 260.171 20.1602L259.707 19.695L259.334 20.4389L259.055 20.2523L258.681 19.9736L257.982 20.3929V20.8096L257.332 20.2523V21.1828L257.005 20.9502L256.633 21.0423L257.005 22.5785L256.214 21.0423L255.656 21.4154L255.098 21.2288L254.445 20.8096L253.792 21.4154L253.421 21.7401L252.303 20.9962L251.932 21.5075L251.325 21.1828L251.653 21.9267L250.767 21.6941L250.488 21.9267L249.976 21.5535L249.416 21.8322L248.625 21.2749V21.6941L248.021 21.9728L247.368 21.5075L246.948 21.8807L246.482 22.9493V22.2514L245.738 21.7862L245.97 22.438L245.599 23.3685V22.6246L245.041 21.9728L244.063 22.1133V21.602L243.457 21.9267C243.457 21.9267 243.178 21.4615 243.132 21.3209C243.086 21.1828 242.62 21.0883 242.62 21.0883L242.154 21.4154V20.8557L241.642 21.7401V21.1368H240.897L240.524 21.9728C240.524 21.9728 240.291 21.3694 240.245 21.1828C240.199 20.9962 239.92 21.602 239.92 21.602L239.408 21.6941L238.663 21.5535V21.1368L238.056 21.4154L237.498 22.1593C237.498 22.1593 237.685 21.5075 237.731 21.3209C237.777 21.1368 237.171 21.3209 237.171 21.3209H236.799L236.241 21.6941L236.009 21.3209L235.73 20.9962H235.448L235.031 21.3209L234.611 20.7176H234.332L233.82 21.1828L233.4 20.9502L233.167 20.8557L232.842 20.9962L232.33 21.602L231.957 22.1593V21.7401L231.632 21.4154L231.071 21.1828L230.654 20.7176L230.188 20.577L229.63 20.6715L228.977 20.3929L228.466 20.2063L227.721 20.8096V20.2063L226.464 20.3929V21.3694L225.904 20.9962V20.4849L225.299 19.8791L225.02 19.4163H224.368L223.948 19.7871V19.2758L223.669 18.6724L223.39 19.5084L222.924 19.3218L222.691 19.695L222.924 20.2983L222.225 20.0657V20.6715L221.808 20.7176L221.481 20.3444L220.644 20.2523L220.365 19.7871L219.945 20.2523V19.741L219.479 18.905L218.78 18.6724L217.943 18.5319L217.385 17.9746L217.058 18.4398L216.359 19.3679V18.2532C216.359 18.0666 216.034 17.5553 216.034 17.5553L215.102 17.9746H214.731L214.265 18.7645V18.2072L213.94 17.6014C213.94 17.6014 213.101 16.8575 212.868 16.8575C212.635 16.8575 212.868 17.4633 212.868 17.4633L212.123 17.3688L211.703 17.788L210.958 17.7419L210.029 17.88H209.19L208.353 18.5779L208.258 18.2992C208.166 18.0206 207.608 18.4858 207.608 18.4858C207.608 18.4858 207.421 18.0666 207.375 17.834C207.326 17.6014 207.142 17.4148 207.142 17.4148L206.581 17.788V17.4148L206.349 17.0441L205.931 17.6474L205.325 18.1587V17.3227L204.954 16.998L204.393 17.1361L204.163 17.2306L203.556 16.4383V17.0441L203.835 18.6724L203.418 18.1417L202.952 17.5553C202.952 17.5553 203.09 15.927 203.185 15.6944C203.277 15.4617 202.67 16.4383 202.67 16.4383H201.974C201.741 16.4383 201.554 16.8114 201.554 16.8114V17.2306L201.181 16.8114L200.902 17.0901H199.786V17.6014L199.366 17.9746L198.854 18.2992H198.48L198.248 18.5779V19.2758L197.876 19.4624C197.876 19.4624 197.318 19.1352 197.178 19.0819C197.037 19.031 196.945 19.3679 196.945 19.3679V19.6005L196.666 19.8791L196.292 19.9276C196.292 19.9276 195.78 19.3679 195.642 19.1352C195.501 18.905 195.222 19.5084 195.222 19.5084L194.989 19.8331L194.618 19.1352L194.152 19.7871V20.3444L193.686 19.8791L192.895 19.6005V19.3679L192.289 19.7871H192.01V20.7636L191.498 20.6255L191.265 20.3444L190.986 20.9962L190.474 21.602L190.008 20.9962L189.589 21.6941L189.263 22.0648V21.4615C189.263 21.3209 188.844 20.9962 188.844 20.9962L188.053 22.7167L188.264 21.8976L188.378 21.4615L187.912 21.3694L187.213 21.8322L186.842 21.648L186.563 21.5075L186.282 21.8322V22.8087L185.957 22.6706L185.352 21.9267V22.5301L184.421 21.9267V21.5535H183.955L183.63 21.3209L183.256 20.9962L182.837 21.7401H182.278V21.9728L181.813 22.3459L181.395 21.9728L180.976 22.484L180.602 23.0414L180.323 22.9953L179.998 22.7167L179.67 22.9493L179.345 22.484L178.741 22.7167L178.321 23.8337V22.9953H178.042L177.669 23.3685L177.157 23.8337V22.9953L176.832 23.274L176.599 24.0663L176.366 23.274H175.992L175.762 23.8337L175.529 24.6697V23.8337H174.876L174.551 24.1584H172.921L172.688 24.3911H172.222L171.989 24.9484L172.222 25.8328L171.569 25.6923L171.198 25.5542L170.686 25.6002L170.174 26.3902L170.453 25.7868L170.22 25.2755H170.034L169.335 25.9249L169.01 26.8554L168.311 26.5767V26.8094L167.891 26.5767L167.566 26.9014L166.681 27.3667V27.878L166.309 28.1106L165.797 27.7398L165.47 28.0185L164.866 27.8319L164.587 28.5298L164.167 28.949H163.747V30.2963L163.284 29.0871V28.5758L162.445 28.1106L162.025 28.9005L161.607 29.3658L161.188 29.1332L160.814 29.4118V29.9255L160.489 30.3883L160.256 30.8076L159.931 31.692L159.603 30.9021L159.278 30.621H158.859L157.929 30.8536L157.696 31.5515L156.952 31.3188L156.624 31.8786H156.391L156.02 32.1573L154.902 31.9246H154.39L154.064 32.4819L153.785 31.8786L153.32 31.4594L152.854 30.9941L152.342 31.5975V32.2033L151.689 31.9707L151.223 32.528L150.573 33.1798L150.107 33.5045H149.409L148.989 33.9237L148.198 34.1782V33.9698C148.198 33.9698 147.591 33.5506 147.499 33.4585C147.407 33.3664 147.499 33.0877 147.499 33.0877L146.941 32.6685H146.475V33.4125L146.01 33.599L145.777 33.0393L145.311 32.9012L144.891 32.9472L144.425 33.4125V32.9012L143.68 33.1338V33.8777C143.68 33.8777 143.401 33.3179 143.263 33.2259C143.122 33.1338 142.657 33.2719 142.657 33.2719L142.239 33.318L141.492 33.6911L141.213 34.1782L140.143 34.435V32.9012L139.723 32.7606L139.398 32.2033L138.932 32.3899L138.421 32.2033L137.863 31.8786L137.443 32.528L136.836 32.9472L137.069 32.2033L136.698 31.692L136.465 31.5515L135.858 31.8786V31.2728C135.858 31.2728 135.72 30.621 135.579 30.4368C135.441 30.2502 135.254 30.5749 135.254 30.5749L134.881 30.9481V29.8771L134.463 29.6929L134.044 29.1332L133.532 29.6929V28.5758L133.158 28.1106L132.367 28.4838V27.7859L131.855 27.5533L131.203 27.1341L130.831 28.3432L130.412 28.8085V29.4118L129.762 28.8085L129.296 28.5298L128.968 28.2051H128.551V28.6679L128.085 28.5298L127.478 28.949L127.107 29.4118C127.107 29.4118 126.92 28.8545 126.828 28.7164C126.734 28.5758 126.501 28.7624 126.501 28.7624L125.851 29.1332L125.336 29.1816L124.965 29.785L124.499 30.0176V29.5984L123.895 29.4603L124.174 29.0871L123.524 27.924C123.524 27.924 123.475 28.6679 123.521 28.9005C123.567 29.1332 123.102 29.5063 123.102 29.5063L122.59 28.9005L122.172 28.995L121.428 28.4838V29.1816L121.008 29.6929L120.401 29.2277L120.076 29.785L119.656 29.5524V28.8085L118.587 29.2277V29.785L118.308 28.995L118.029 28.6219L117.563 28.8545L117.284 28.3893L116.723 28.0185L116.165 28.3893L115.607 28.7164V29.5063L115.047 29.0871L114.535 29.3658L114.118 28.4838V29.4118L113.373 29.9255L113.14 29.739L112.72 30.2042L112.395 29.9716L112.067 29.739L111.369 29.785L110.718 29.831H110.158L109.833 29.5984L109.229 29.5063L108.389 29.6929L107.924 29.4118V28.995L107.645 29.2737L107.086 29.0411L106.807 28.7624L106.388 29.0871L105.922 29.6444L106.155 29.0871V28.5758L105.502 28.4838L105.131 28.9005L104.898 29.5063L104.524 29.2277L104.245 28.8085V28.0645L103.687 27.3667L103.455 28.0185L103.083 28.2511L102.85 28.0185L103.083 28.8085H102.198L101.824 28.995L101.266 28.8545V28.2972L100.987 28.8085L100.567 29.1816L100.334 28.7164L99.7303 28.8545V29.2277H99.1238L98.658 29.4603L98.2868 29.739L98.0538 29.6929V28.995L97.6341 28.2972L97.309 28.5298L96.7025 28.5758V28.3893L96.2852 28.0185V28.2511L96.0061 29.0411L95.3074 28.7624V29.5524L94.9338 30.2502V29.785L94.6548 29.3197L94.0021 29.6929L93.5387 30.0176H92.7915V30.3883L92.1413 30.621V30.9021L91.9083 30.8076L91.3503 30.3423L90.8384 30.0176V30.621L90.6055 31.1807L90.1858 30.9941L89.9528 30.8076V30.3883H89.6277L89.2541 31.2728L88.6961 30.9941L88.2303 30.3883L87.3447 30.5289V30.3883H86.8789L86.646 30.7155L85.8089 31.1807L85.4838 31.8786V32.1112L85.018 31.9707L84.3193 32.3899L84.0403 32.8067L83.5283 33.0393L83.1547 32.9012L82.6428 32.7606L82.1769 32.3414L81.8518 32.1112L81.107 32.2033L80.6412 32.2954L80.3161 31.8786H79.6634V32.2493L79.3383 31.8301L78.7779 31.1807H78.3121L78.0331 31.646L77.5672 31.1807L77.2421 32.0627L76.917 31.7841L76.6356 31.4594L75.7064 31.646L75.4734 31.7381L75.1944 31.1807H74.0299L73.7023 31.692L73.4233 31.9707L72.9575 31.692L72.5402 32.0627V31.1807L72.1205 31.4594L71.4217 32.2033V31.4594H71.0505L70.5847 32.0627L70.0728 32.0167V31.692L69.653 32.1112L69.4201 31.692L69.1411 32.2033L68.9082 32.6225L68.2556 32.9472V31.9707H67.5568L67.1395 32.6225L66.533 32.2954L65.8342 32.7146L65.5091 32.4359L65.2301 31.9707H64.9511L64.2985 32.2954V31.9707H63.6944L63.3207 32.2954L63.0878 32.7606L62.6681 33.1798L62.343 32.6225L61.9718 31.9707L61.3191 32.4359V32.7606L60.7611 33.2259C60.7611 33.2259 60.4797 32.9933 60.3875 32.8067C60.2953 32.6225 59.8756 32.7146 59.8756 32.7146L58.9439 32.7606L58.3398 32.6225L57.5003 32.6685L56.8016 31.9707L56.3382 32.4819L55.1275 32.9472L54.4749 33.318L53.963 33.2719V31.9707L53.3564 32.7146L52.6116 33.3664H51.7285L51.4495 33.7372H50.331L49.3532 34.2484L48.7952 34.7597L48.5623 34.481H47.6307L46.5122 34.0643L45.9542 33.7372L44.3723 34.6216L43.5328 34.9923L43.2999 34.6216H42.8826L42.4629 35.1329H40.5535L40.0416 35.8308L39.8087 36.342L39.435 36.2015L38.598 35.8308L37.9939 36.3881H37.1083L36.0845 36.9454L35.5726 37.7838L35.0606 37.968L34.687 37.6433L34.0344 37.3646L33.4764 37.6433L32.6854 38.0431L31.9867 38.5738L31.5209 38.5277L31.2418 38.0431H30.6377L30.218 38.7143L29.8444 38.0431L29.5654 38.7603V39.1771L28.5415 39.6351V38.9469C28.5415 38.7143 28.3086 38.3411 28.2164 38.1085C28.1218 37.8759 27.8889 38.3411 27.8889 38.3411L27.144 39.1311L26.3992 39.085L25.8412 39.7829L25.3754 39.4582V38.3411L24.6305 39.3177L23.7935 38.3411L23.2791 39.1771L22.117 39.2716C22.117 39.2716 21.7895 39.039 21.6512 39.039C21.5129 39.039 20.3459 39.7829 20.3459 39.7829V39.085L19.7418 38.3411L18.5311 38.8524L17.8324 39.2716L17.1336 38.8524L16.4834 39.3637L16.1559 39.9695C16.1559 39.9695 15.5057 40.5268 15.5057 40.3863C15.5057 40.2457 14.4818 39.5963 14.4818 39.5963L13.8292 40.1852H13.1766L12.5263 39.1432L12.1066 40.1852L11.3157 40.6189C11.3157 40.6189 11.0828 39.5963 11.0342 39.2256C10.9881 38.8524 10.3379 39.875 10.1511 40.0616C9.9643 40.2482 9.40628 40.3645 9.40628 40.3645L8.66144 40.5729L8.19562 39.5043L7.35616 40.1076V40.8976L6.51913 40.3645L5.96111 40.7134L5.58748 39.5043L4.56363 39.7829L4.28462 40.3645L4.00561 41.2247L3.39907 39.9695H3.16616L2.42132 39.5043L2.00402 39.7369L1.35138 40.4347V39.7127L0.698738 39.5043L0 39.921V29.2955C0.451268 28.949 0.812768 28.5128 1.18155 28.0839C1.24948 28.0403 1.31741 27.9967 1.38535 27.9507C1.3999 27.8925 1.41689 27.8319 1.43387 27.7714C1.86573 27.1874 2.46499 27.7617 2.95023 27.5533C2.98419 27.4927 3.02544 27.4418 3.06668 27.3982C3.12249 27.4321 3.18314 27.4248 3.24622 27.374C3.30688 27.3691 3.36753 27.3643 3.42818 27.357C4.47144 27.3546 4.91543 28.1881 5.48801 28.8375C5.75003 29.1356 5.97324 29.5184 6.45848 29.1792C6.58221 29.1695 6.70837 29.1598 6.83211 29.1525C6.84181 29.0968 6.84909 29.0411 6.85394 28.9854C6.9146 28.9417 6.93643 28.8981 6.9243 28.8569C7.16449 28.7794 7.39741 28.6897 7.6473 28.6485C7.96028 28.4208 8.29266 28.2051 8.29266 27.8004C8.48433 27.7132 8.57895 27.546 8.63961 27.3521L8.63233 27.3449C8.75121 27.2528 8.76577 27.151 8.70269 27.0444H8.70511C9.33107 26.9111 9.47906 26.3853 9.65617 25.8837C9.62221 25.731 9.64647 25.5832 9.67801 25.433C10.1608 25.072 10.6558 24.7739 11.3788 25.1858C11.5559 25.2876 11.7572 25.1786 11.9174 25.0041C11.9465 25.0089 11.9732 25.0138 12.0047 25.0187C12.0969 24.9944 12.1842 24.9605 12.2643 24.9072C12.3783 24.7788 12.4924 24.6939 12.6113 24.6431C12.9364 24.6237 13.2493 24.723 13.5696 24.9581C13.9723 25.2537 14.3508 25.2585 14.5692 24.8708C14.6347 24.8127 14.6953 24.74 14.7536 24.6479C14.8797 24.4371 15.1175 24.3474 15.2728 24.1706C15.5833 23.841 15.8502 23.4872 15.9254 23.0244C15.9303 22.9057 15.9375 22.7845 15.9472 22.6658C16.2238 22.644 16.4495 22.9493 16.6945 23.1455C17.0754 23.2449 17.0172 24.0978 17.6795 23.7223C18.1235 23.8119 18.7786 23.5308 18.9848 23.9428C19.5089 24.9799 20.1809 24.6818 20.9209 24.345L20.9063 24.3692C20.9767 24.3644 21.0446 24.362 21.115 24.3596C21.4595 24.6406 21.7701 24.5437 22.0782 24.2893C22.43 23.9985 22.7891 23.7198 23.1457 23.4388L23.728 23.5308C24.3855 23.3976 24.9653 22.8184 25.7126 23.1819C25.9965 23.4073 26.2512 23.5139 26.4768 23.5139C26.8359 23.5139 27.1271 23.2449 27.36 22.7554C27.6341 22.77 27.8331 22.9057 27.9665 23.1407C27.9835 23.5139 28.2043 23.6956 28.5488 23.7586C28.6143 23.824 28.6822 23.8895 28.7477 23.9525C28.3329 24.8951 29.3567 25.2731 29.5435 25.9782C29.7595 26.2133 29.9633 26.0703 30.1646 25.9588C30.4922 26.0315 30.5649 26.2763 30.5746 26.5622C30.514 26.6809 30.4509 26.8021 30.3878 26.9208C30.6426 27.0565 30.7178 27.4151 31.0963 27.4055C32.1711 27.3788 33.2895 27.592 34.1945 26.7633C34.1994 26.6349 34.2018 26.504 34.2042 26.3756C34.3934 26.2133 34.573 26.0436 34.5924 25.7723L34.7525 25.7286C35.5435 25.7286 36.0432 26.2326 36.5358 26.7536C36.6716 27.105 36.9385 27.2407 37.3121 27.2528C38.8091 27.3013 40.2163 26.8893 41.621 26.4483C41.6259 26.4483 41.6283 26.4459 41.6332 26.4459C41.6307 26.4871 41.6283 26.5258 41.6307 26.567C42.1354 26.7391 42.657 27.0468 43.0306 26.3587C43.1058 26.2302 43.1786 26.1042 43.2538 25.9758C43.3363 25.9007 43.4188 25.8256 43.5013 25.7529C43.4965 25.7359 43.4892 25.7238 43.4868 25.7092C44.5446 25.1834 45.6558 24.9532 46.8397 25.1568C46.9465 25.6317 47.1867 25.8159 47.6476 25.5372C47.8708 25.3724 47.8975 24.9993 48.2469 24.9629H48.2493C48.3949 25.2973 48.5332 25.3482 48.6666 24.9557C48.9553 24.6552 49.2999 24.6382 49.6735 24.7594C49.7172 24.7448 49.7608 24.7327 49.8045 24.7182C49.8894 24.6455 49.9719 24.5704 50.0495 24.4904C50.1151 24.4419 50.183 24.3959 50.2509 24.3474C50.2679 24.2869 50.2897 24.2287 50.3164 24.173C50.3407 24.1318 50.348 24.0954 50.3431 24.0591C50.3553 24.0252 50.3698 23.9912 50.3795 23.9573C50.3868 23.9307 50.3965 23.9064 50.4038 23.8822C50.7944 23.3297 51.3063 22.9057 51.8789 22.5495C51.9565 22.4113 52.0342 22.2732 52.1118 22.1375C52.17 22.0164 52.2283 21.8928 52.2962 21.7789C52.3981 21.6335 52.5097 21.522 52.631 21.4397C53.1284 21.1852 53.6039 21.1416 53.9921 21.9655C54.1037 22.2029 54.3002 22.2732 54.5695 22.1448C55.0135 21.934 55.4696 21.7474 55.9209 21.5511C56.1926 21.5293 56.4061 21.4203 56.5177 21.1561L56.508 21.1464C56.8428 20.8387 57.1777 20.6836 57.5149 20.6836C57.8521 20.6836 58.1748 20.8314 58.5048 21.1319C59.0264 20.8121 59.417 21.0641 59.8513 21.3718C60.6616 21.9461 61.5011 22.5567 62.5274 21.7595C62.7797 22.4065 62.9932 23.1286 63.9127 22.5785C64.4319 22.8184 65.0045 22.8184 65.5504 22.9372C65.8027 23.1504 65.9264 23.5357 66.3437 23.5308C66.4044 23.4654 66.465 23.3976 66.5257 23.3297C66.6033 23.0026 66.6786 22.673 66.7562 22.3459H66.7586C67.0764 22.5713 67.4258 22.7651 67.7073 23.0317C68.6486 23.9185 69.2333 23.7877 69.7646 22.5398L69.9976 21.9582C70.2062 21.8031 70.3202 21.5899 70.376 21.3403C70.4318 21.3379 70.4876 21.3306 70.5434 21.3185C70.6211 21.2725 70.6939 21.2192 70.7594 21.1561C70.7618 21.1513 70.7618 21.1464 70.7642 21.144C71.002 21.161 71.2155 21.2482 71.4387 21.367C71.9919 21.6577 72.5305 21.6287 72.9866 21.1368C73.057 20.9429 73.1298 20.7491 73.2025 20.5552C73.1977 20.3468 73.1928 20.1408 73.188 19.9349V19.93C73.6489 19.9349 74.1124 19.9397 74.5782 19.9446C74.7698 20.1384 74.6777 20.7151 75.0125 20.7151C75.1047 20.7151 75.2332 20.6691 75.4104 20.5576C75.5972 20.4704 75.7864 20.3856 75.9757 20.3008C75.8859 19.8258 76.3517 19.5544 76.4051 19.1304C76.4706 19.0625 76.5337 18.9947 76.5967 18.9244C77.3319 18.4349 78.2514 19.0262 78.9914 18.5319C78.9987 18.5319 79.1491 18.7185 79.2049 18.8299C79.3238 19.0674 79.4815 19.4527 79.712 19.3291C80.0104 19.174 80.5272 19.0771 80.4495 18.5246C80.5005 18.4519 80.5514 18.3792 80.6024 18.3089C81.5243 17.6232 82.6112 17.5311 83.7006 17.4342C84.13 17.3954 84.409 17.5868 84.5231 17.9867C84.756 18.8081 85.28 19.0601 85.9958 18.9559C86.0249 18.9971 86.0564 19.0383 86.0904 19.0771C86.1656 19.1377 86.2456 19.1837 86.3378 19.2152C86.3815 19.2273 86.4228 19.2419 86.4664 19.2564C86.4761 19.3509 86.5004 19.4405 86.5441 19.5254C86.6266 19.6804 86.7163 19.8283 86.8182 19.9664C86.9153 20.1626 87.0657 20.325 87.2816 20.4437C87.3326 20.4801 87.386 20.5164 87.4442 20.5504C87.6989 20.703 87.893 20.9623 88.2011 21.0277C87.9804 21.3645 88.1842 21.6941 88.2982 22.0236C88.5432 22.2902 88.8053 22.5446 88.7737 22.959C88.7543 23.1964 88.7956 23.4775 89.1255 23.4024C89.4288 23.3346 89.4579 23.1189 89.3633 22.8838C89.4118 22.8814 89.4603 22.8717 89.5089 22.8572C89.783 22.6973 89.9601 22.4016 90.2852 22.3193C90.4405 22.232 90.5982 22.1521 90.7535 22.0721C90.9209 21.9727 91.0689 21.8443 91.2169 21.7135C91.5323 21.5923 91.7943 21.3452 92.0685 21.1246C92.1971 21.081 92.3354 21.0568 92.4906 21.0592C94.024 20.4801 95.3559 19.7047 95.5913 17.8679C95.601 17.7104 95.601 17.5553 95.5525 17.4172C95.6592 17.3372 95.7466 17.2403 95.8072 17.1192C95.8145 17.1071 95.8193 17.0949 95.8266 17.0828C96.5326 17.3445 97.2969 17.1919 97.9714 16.6394C98.0005 16.6903 98.0344 16.7363 98.0805 16.7775C98.5633 17.1313 99.034 17.0853 99.5678 16.8381C100.245 16.5231 100.834 15.9682 101.654 16.007C101.756 15.9948 101.853 15.9609 101.941 15.9052C102.251 15.612 102.634 15.4424 102.998 15.234C103.268 15.0789 103.525 14.8947 103.474 14.5967C103.549 14.5749 103.622 14.5458 103.692 14.507C103.92 14.2332 104.418 14.0951 104.187 13.5959C104.522 13.7583 104.854 13.6129 105.129 13.4602C105.704 13.1404 106.087 13.2833 106.626 13.6468C107.135 13.9885 107.611 14.5482 108.338 14.4973C108.428 14.4658 108.508 14.4222 108.581 14.3592C108.763 14.1775 108.945 13.986 109.241 14.0612C109.857 14.335 110.245 14.8729 110.68 15.3503C110.993 15.6944 111.264 15.7889 111.543 15.5199C111.468 16.099 111.868 16.3486 112.38 16.5207C112.317 16.5594 112.262 16.6055 112.215 16.6733C112.082 17.4754 112.812 17.3445 113.205 17.5772C113.317 17.6038 113.424 17.6377 113.528 17.6765C113.676 17.7783 113.829 17.8631 114.011 17.8752C114.122 18.4083 114.355 18.8396 114.998 18.9196C115.219 18.8953 115.328 18.7378 115.433 18.5731C115.573 18.6966 115.733 18.796 115.908 18.8784C116.413 19.1183 116.66 18.968 116.677 18.418C116.672 18.4083 116.665 18.401 116.658 18.3913C116.663 18.3913 116.667 18.3889 116.67 18.3865C116.857 18.5101 117.036 18.5173 117.211 18.3453V18.3307C117.517 18.4955 117.747 18.4325 117.898 18.1175C118.531 18.149 119.263 18.023 119.739 18.3138C120.324 18.67 120.714 18.5682 121.003 18.1829C121.5 17.519 122.255 17.2428 122.852 16.7412C122.854 16.7339 122.859 16.7266 122.861 16.7194C122.883 16.7799 122.905 16.8454 122.934 16.9156C123.453 17.0877 123.978 17.0416 124.499 16.9229C124.909 16.8284 125.098 16.62 124.921 16.2468C124.965 16.2687 125.013 16.288 125.064 16.2977C125.161 16.305 125.259 16.2929 125.351 16.259C125.564 16.1378 125.639 15.9173 125.768 15.7259C126.268 14.965 126.61 14.0757 127.432 13.5596C127.493 13.4869 127.549 13.4093 127.593 13.3221C127.66 13.1961 127.789 13.1016 127.913 13.0047C127.998 12.9635 128.063 12.9029 128.109 12.8205C128.158 12.7599 128.192 12.6897 128.204 12.6097C128.476 12.0717 128.988 12.1347 129.48 12.1008C129.548 12.033 129.572 11.9627 129.565 11.8949C129.599 11.873 129.63 11.8512 129.662 11.827C129.798 11.6744 129.837 11.5096 129.752 11.3303C130.147 11.4441 130.535 11.5193 130.771 11.9845C130.902 12.2462 131.244 12.411 131.567 12.2002C131.615 12.2535 131.666 12.3044 131.715 12.3553C131.867 12.3892 132.02 12.394 132.176 12.3868H132.183C132.452 12.8617 133.034 12.9077 133.483 13.1355C133.845 13.1064 134.066 12.8883 134.221 12.5854C134.245 12.4934 134.248 12.4037 134.226 12.3213C134.238 12.3068 134.248 12.2971 134.26 12.2826C134.272 12.2607 134.289 12.2414 134.303 12.222C135.046 12.2486 135.502 11.7616 135.973 11.2963C136.036 10.945 136.288 10.9741 136.521 10.9668C136.521 10.9716 136.521 10.9765 136.528 10.9813C136.564 11.0564 136.601 11.1267 136.642 11.1921C136.557 12.0524 136.892 12.3771 137.778 12.3964C138.525 12.411 139.105 12.0693 139.668 11.6501C139.736 11.5629 139.782 11.466 139.808 11.3593C139.811 11.3327 139.816 11.3109 139.82 11.2866C140.165 11.1824 140.42 10.819 140.81 10.8578C141.664 10.9401 142.067 10.4119 142.363 9.73098C142.404 9.63648 142.429 9.53955 142.429 9.43535C142.429 9.28269 142.414 9.13488 142.334 9.00161C142.317 8.9798 142.298 8.96768 142.278 8.95072C142.278 8.9483 142.278 8.94831 142.278 8.94831C142.836 9.12278 143.469 9.51775 143.586 8.4346C143.576 8.38614 143.569 8.33767 143.559 8.29163C143.596 8.26497 143.634 8.23832 143.671 8.21166C143.821 8.18016 143.979 8.16078 144.141 8.16078C144.236 8.13655 144.323 8.09536 144.401 8.03963C144.617 7.76096 145.114 7.65191 144.991 7.16486C145.369 7.63737 146.056 7.46291 146.502 7.79003C147.397 8.37886 148.312 8.57272 149.29 7.9742C149.615 7.77308 149.974 7.73188 150.345 7.8385C150.612 7.9742 150.835 8.30133 151.17 8.14625C151.447 8.65026 151.706 8.30617 151.915 8.09293C152.16 7.84334 152.349 7.54045 152.565 7.25936C152.611 6.95889 152.791 6.80866 153.004 6.70204C153.177 6.72143 153.356 6.6972 153.536 6.656C153.897 6.42823 153.977 6.11564 153.824 5.73036C153.98 5.82728 154.162 5.82487 154.268 5.70856C154.756 5.18273 155.443 5.15364 156.049 4.92587C156.382 4.67871 156.867 4.88226 157.187 4.60117C157.226 4.88953 157.408 5.00342 157.718 4.96707C157.733 4.95496 157.747 4.94526 157.762 4.93314C158.029 4.95253 158.121 4.6981 158.242 4.49455C158.393 4.53332 158.543 4.56724 158.679 4.63994C159.48 5.06641 160.222 5.05915 160.979 4.47759C161.467 4.102 161.833 3.67068 162.095 3.13032C162.095 3.12063 162.1 3.10851 162.105 3.09882C162.141 3.10366 162.178 3.08427 162.214 3.03339C162.66 2.67718 162.578 1.53104 163.633 2.08837C163.628 2.09079 163.626 2.09321 163.624 2.09805C164.24 3.01885 165.084 2.61176 165.785 2.35248C166.292 2.16832 166.53 2.19739 166.62 2.46879C166.564 2.75472 166.559 3.04551 166.596 3.34113C166.622 3.51318 166.695 3.65857 166.833 3.76761C166.833 3.77003 166.826 3.77487 166.824 3.7773C166.804 3.92995 166.858 4.05838 166.947 4.1747C167.222 4.60844 167.641 4.67143 168.102 4.62055C168.18 4.57693 168.229 4.51394 168.25 4.43398C168.988 4.48971 169.74 4.77806 170.439 4.28132C170.73 4.07292 170.994 4.21104 171.264 4.32736C171.739 4.4364 172.139 4.44124 172.135 3.9033C172.142 3.90088 172.152 3.90088 172.161 3.89845C172.241 3.84757 172.307 3.77972 172.358 3.69975C172.394 3.6101 172.406 3.51801 172.397 3.42351C172.389 3.38232 172.372 3.34355 172.351 3.30478C172.557 3.17877 172.78 3.11336 173.01 3.06974C173.416 3.08912 173.818 2.88557 174.224 2.95584C174.311 2.94615 174.398 2.9292 174.486 2.90254C174.602 2.90496 174.721 2.89042 174.837 2.86619C175.235 3.02612 175.631 3.19575 176.077 2.86135C176.201 2.76927 176.334 2.84195 176.414 2.95342C176.9 3.62221 176.878 3.25148 176.892 2.94858C177.106 2.98008 177.261 3.12547 177.438 3.22966C177.509 3.25874 177.584 3.27812 177.659 3.28781C178.028 3.65129 178.363 2.87103 178.724 3.04792C179.294 3.13274 179.724 3.03581 179.738 2.40821C180.342 3.0455 181.114 3.17392 181.932 2.77168C181.956 2.79591 181.98 2.82015 182.007 2.84196C182.089 2.89285 182.177 2.93161 182.271 2.95584C182.271 2.97281 182.276 2.98977 182.283 3.00674C182.361 3.15697 182.456 3.31932 182.616 3.36536C184.224 3.81849 185.823 4.41701 187.536 3.8718C188.499 3.75549 188.929 4.27404 189.077 5.14153C189.179 5.52197 189.3 5.89756 189.477 6.24891C190.074 6.78928 190.678 6.77474 191.476 6.20287C191.959 6.80139 192.716 6.58572 193.337 6.75534C193.623 6.83531 193.929 6.74566 193.987 7.18425C194.067 7.7973 194.477 7.86516 195.023 7.79489C196.229 7.63738 197.415 7.18667 198.662 7.56226C198.929 7.64222 199.179 7.46534 199.393 7.29329C199.73 6.87893 200.186 6.52516 200.125 5.90483C200.412 5.97995 200.608 5.91451 200.645 5.60677C200.669 5.62131 200.696 5.63585 200.722 5.65281C201.135 5.62131 201.528 5.54135 201.826 5.21907C201.989 4.87499 202.108 4.51636 202.455 4.28374C202.571 4.2062 202.697 4.102 202.721 3.97114C202.797 3.93722 202.872 3.89845 202.94 3.85241C203.013 3.79183 203.076 3.72399 203.131 3.64645C203.806 2.888 204.725 2.99947 205.599 2.94858C205.689 2.93404 205.774 2.90738 205.856 2.86619H205.861C206.079 3.03581 206.366 3.06489 206.637 3.13032C206.848 3.13759 207.028 3.03338 207.215 2.95342C207.702 2.72322 208.285 2.75473 208.746 2.44699C208.748 2.44941 208.753 2.45183 208.755 2.45425H208.758C208.408 3.13516 208.527 3.28055 209.323 3.32417C209.456 3.25874 209.59 3.18847 209.726 3.13032C210.129 2.88558 210.655 3.09154 211.043 2.80561C211.058 2.81046 211.075 2.8153 211.089 2.82015C211.118 3.00431 211.257 3.12305 211.424 3.11821C212.264 3.08428 213.091 3.23694 213.926 3.2539C213.93 3.26117 213.933 3.26843 213.938 3.2757C213.996 3.34113 214.057 3.40171 214.122 3.45744C214.28 3.56163 214.437 3.64645 214.576 3.64645C214.714 3.64645 214.833 3.56648 214.923 3.33871C215.243 3.48894 215.546 3.7458 215.925 3.47683C216.259 3.60525 216.594 3.73367 216.929 3.8621C217.002 3.87664 217.016 3.96146 217.029 4.05111C217.029 4.11896 217.029 4.18923 217.024 4.25708C217.024 4.40731 217.009 4.55997 216.99 4.7102C216.871 5.16576 217.152 5.47835 217.388 5.81032C217.463 5.97025 217.545 6.12291 217.633 6.26588C217.63 6.35069 217.613 6.43307 217.555 6.50334C217.572 6.55665 217.587 6.60996 217.596 6.66569C217.926 6.88377 218.29 7.04855 218.518 7.40717C218.928 8.05658 219.282 7.95966 219.561 7.29572C219.62 7.28602 219.678 7.2739 219.734 7.25694C219.588 6.99282 219.608 6.73112 219.741 6.47184C219.816 6.41126 219.889 6.35311 219.964 6.29253C220.459 5.80063 220.682 6.10352 220.833 6.593C220.879 6.74323 220.811 6.92498 220.927 7.05583C221.046 7.19152 221.187 7.23271 221.325 7.06794C221.546 6.94678 221.764 6.82562 221.985 6.70447C222.063 6.404 222.233 6.20287 222.441 6.04779C222.652 5.89271 222.9 5.78124 223.14 5.65524C223.283 5.30146 223.637 5.22392 223.926 5.05673C223.853 4.49456 223.841 3.99781 224.397 3.58587C224.749 3.32659 224.943 2.85893 225.21 2.48334C225.862 2.46638 226.517 2.45184 227.172 2.43487L227.398 1.88967C227.859 1.8412 228.286 1.43411 228.752 1.43411C228.844 1.43411 228.936 1.45107 229.031 1.48741C229.05 1.56253 229.072 1.64008 229.106 1.71762C229.184 1.84604 229.278 1.95751 229.375 2.06655C229.417 2.11259 229.429 2.16589 229.414 2.22647C229.662 2.4591 229.919 2.61176 230.232 2.32583C230.669 2.20225 230.773 2.49303 230.916 2.81531C231.117 3.27329 231.421 3.65614 232.003 3.63917L232.032 3.65614C232.364 3.85968 232.711 3.98811 233.075 3.98811C233.1 3.98811 233.124 3.98811 233.151 3.98568C233.201 4.04142 233.255 4.09715 233.313 4.15288C233.844 4.27162 234.22 4.69809 234.725 4.86529C234.8 4.90164 234.873 4.93557 234.948 4.96707C234.965 5.00342 234.982 5.04218 234.999 5.07853C235.179 5.28207 235.193 5.73036 235.606 5.59951C236.118 5.43474 236.392 5.02279 236.499 4.50182C236.603 4.41458 236.71 4.32493 236.814 4.2377C237.091 4.1747 237.367 4.11411 237.644 4.05111C237.86 4.04142 238.088 4.08988 238.27 3.91542C238.539 3.82334 238.736 3.64887 238.913 3.45744C239.092 3.26359 239.25 3.04793 239.442 2.87104C239.873 2.91223 240.286 3.01159 240.689 3.14971C241.089 3.28783 241.475 3.4647 241.856 3.66583C242.181 3.23693 242.826 3.91784 243.1 3.30963C243.158 3.30236 243.214 3.28782 243.27 3.26844C243.401 3.06489 243.535 2.86377 243.668 2.66265C244.012 2.52696 244.456 2.34279 244.597 2.80318C244.784 3.4114 245.294 3.42352 245.711 3.63191C245.771 3.64161 245.835 3.63918 245.895 3.63191C245.961 3.70218 246.024 3.77488 246.089 3.84515C246.444 3.91785 246.735 3.84515 246.904 3.49379C247.22 3.43806 247.56 3.50832 247.739 3.09397C248.064 2.34036 248.632 2.28948 249.297 2.6578C249.692 2.70869 250.085 2.75715 250.481 2.80803C250.558 2.69899 250.636 2.58753 250.711 2.47849C250.849 2.35006 250.99 2.22163 251.128 2.09078C251.502 2.24101 251.657 1.79516 251.936 1.68854C251.997 1.65946 252.058 1.63039 252.116 1.59888C252.252 1.53831 252.388 1.48015 252.523 1.41957C252.621 1.48015 252.708 1.5068 252.79 1.5068C252.948 1.5068 253.079 1.40503 253.208 1.24995C253.361 1.06579 253.424 0.670821 253.768 0.830749C254.047 0.959176 253.87 1.32264 253.965 1.55042C254.244 2.21679 254.079 3.09881 254.904 3.50105C254.887 3.54709 254.882 3.59072 254.882 3.63191C254.882 4.08504 255.758 4.2692 255.328 4.85803C255.394 5.21181 255.508 5.50258 255.964 5.31116C256.141 5.31116 256.316 5.30388 256.49 5.30145C256.536 5.66008 256.735 5.87333 257.097 5.93148C257.162 6.13018 257.255 6.29738 257.483 6.29738C257.497 6.29738 257.517 6.29738 257.534 6.29495C257.592 6.28768 257.65 6.28525 257.708 6.28525C258.441 6.28525 259.047 6.76746 259.749 6.87893C260.134 7.0849 260.518 7.29329 260.904 7.49925C260.94 7.61072 260.974 7.72461 261.01 7.83608C261.398 8.17289 261.673 8.57999 261.787 9.084C261.918 9.58075 262.345 9.7334 262.752 9.90544C262.813 10.0484 262.883 10.1138 262.966 10.1138C263.036 10.1138 263.114 10.0629 263.199 9.96845C263.487 9.90544 263.64 10.0727 263.762 10.298C263.715 10.4337 263.669 10.5718 263.623 10.7075C263.672 10.7754 263.72 10.8432 263.769 10.9086C264.135 10.8577 264.256 11.1703 264.475 11.3569C264.725 11.5726 264.936 11.9748 265.385 11.7107C265.44 11.7228 265.499 11.7277 265.559 11.7228C266.081 12.4909 265.431 12.5903 264.863 12.7163C265.208 13.0362 265.525 12.7842 265.8 12.8859C266.51 12.9756 266.292 13.705 266.612 14.0636C266.804 14.0781 266.993 14.0902 267.185 14.1023C267.401 14.3859 267.098 14.9916 267.748 15.0013C268.027 15.5441 268.534 15.5538 269.043 15.5538C269.106 15.5417 269.172 15.5393 269.237 15.5465C269.757 14.7614 270.07 13.8455 270.751 13.1646C270.834 12.9635 270.899 12.7478 271.173 12.7357C271.334 12.9732 271.567 12.915 271.792 12.8908C271.804 12.8205 271.816 12.7527 271.831 12.6824C272.564 12.6097 272.469 11.747 272.988 11.4708C273.081 11.2139 273.148 10.9571 273.047 10.6857C273.097 10.5742 273.146 10.4628 273.195 10.3489C273.27 10.3295 273.342 10.3077 273.418 10.2859C273.592 10.0944 273.789 9.9321 273.998 9.78671L274 9.78913Z" fill="#F0E74D"/>
</svg>
